<svg width="40" height="28" viewBox="0 0 40 28" fill="none" xmlns="http://www.w3.org/2000/svg">
<path d="M7.0625 0.499987C8.3125 0.499987 9.27083 1.03082 9.9375 2.09249C10.6042 3.15582 10.6458 4.24999 10.0625 5.37499L7.5 10.5H12.5C13.875 10.5 15.0517 10.99 16.03 11.97C17.01 12.9483 17.5 14.125 17.5 15.5V23C17.5 24.375 17.01 25.5517 16.03 26.53C15.0517 27.51 13.875 28 12.5 28H5C3.625 28 2.4475 27.51 1.4675 26.53C0.489166 25.5517 0 24.375 0 23V11.6875C0 11.3125 0.0316658 10.9267 0.0950012 10.53C0.156666 10.135 0.291668 9.77082 0.5 9.43749L4.0625 2.37499C4.35417 1.79165 4.77083 1.33332 5.3125 0.999989C5.85417 0.666655 6.4375 0.499987 7.0625 0.499987ZM29.5625 0.499987C30.8125 0.499987 31.7708 1.03082 32.4375 2.09249C33.1042 3.15582 33.1458 4.24999 32.5625 5.37499L30 10.5H35C36.375 10.5 37.5517 10.99 38.53 11.97C39.51 12.9483 40 14.125 40 15.5V23C40 24.375 39.51 25.5517 38.53 26.53C37.5517 27.51 36.375 28 35 28H27.5C26.125 28 24.9475 27.51 23.9675 26.53C22.9892 25.5517 22.5 24.375 22.5 23L22.5 11.6875C22.5 11.3125 22.5308 10.9267 22.5925 10.53C22.6558 10.135 22.7917 9.77082 23 9.43749L26.5625 2.37499C26.8542 1.79165 27.2708 1.33332 27.8125 0.999989C28.3542 0.666655 28.9375 0.499987 29.5625 0.499987Z" fill="#E8EBEE"/>
</svg>
