<?xml version="1.0" standalone="no"?>
<!DOCTYPE svg PUBLIC "-//W3C//DTD SVG 1.1//EN" "http://www.w3.org/Graphics/SVG/1.1/DTD/svg11.dtd" >
<svg xmlns="http://www.w3.org/2000/svg" xmlns:xlink="http://www.w3.org/1999/xlink" version="1.1">
<metadata>
Created by FontForge 20190801 at Wed Jan 22 17:21:37 2020
 By Unknown
Copyright (c) 2020 by David Kerkhoff. All rights reserved.
</metadata>
<defs>
<font id="BumperStickerDEMO-Regular" horiz-adv-x="663" >
  <font-face 
    font-family="Bumper Sticker DEMO"
    font-weight="400"
    font-stretch="normal"
    units-per-em="1000"
    panose-1="0 0 0 0 0 0 0 0 0 0"
    ascent="800"
    descent="-200"
    x-height="685.5"
    cap-height="690"
    bbox="2 -249 1056 921"
    underline-thickness="0"
    underline-position="0"
    unicode-range="U+000D-20AC"
  />
<missing-glyph horiz-adv-x="1086" 
d="M30 354q0 85 68.5 156.5t187 113.5t257.5 42t257.5 -42t187 -113.5t68.5 -156.5t-68.5 -156.5t-187 -113.5t-257.5 -42t-257.5 42t-187 113.5t-68.5 156.5zM73 355q0 -73 63.5 -135.5t172.5 -99t235 -36.5q127 0 235.5 36.5t171.5 99t63 135.5t-63 135.5t-171.5 99
t-235.5 36.5q-126 0 -235 -36.5t-172.5 -99t-63.5 -135.5zM259 167q-7 3 -7 7l14 369q0 11 10 11q28 0 45.5 -4.5t22 -8t9.5 -13t6 -10.5q7 -9 35 -54l53 -85l6 170q1 11 21 11h7q95 0 95 -21q-3 -11 -14 -352q0 -15 -24 -15h-71l-4 2q-1 1 -5 5.5t-7.5 9.5t-3.5 9
q-35 70 -66 94l-4 -21l-4 -92q-1 -14 -60 -14h-9q-27 0 -45 2zM618 164q-4 0 -10 6q0 34 1.5 98.5t1.5 97.5q0 30 -1.5 96t-1.5 97q0 7 5 8l63 4h44q32 0 32 -10l-3 -272h52q12 0 15 -10v-11q0 -49 -5 -99q-4 -13 -41 -13q-64 0 -152 8z" />
    <glyph glyph-name=".notdef" horiz-adv-x="1086" 
d="M30 354q0 85 68.5 156.5t187 113.5t257.5 42t257.5 -42t187 -113.5t68.5 -156.5t-68.5 -156.5t-187 -113.5t-257.5 -42t-257.5 42t-187 113.5t-68.5 156.5zM73 355q0 -73 63.5 -135.5t172.5 -99t235 -36.5q127 0 235.5 36.5t171.5 99t63 135.5t-63 135.5t-171.5 99
t-235.5 36.5q-126 0 -235 -36.5t-172.5 -99t-63.5 -135.5zM259 167q-7 3 -7 7l14 369q0 11 10 11q28 0 45.5 -4.5t22 -8t9.5 -13t6 -10.5q7 -9 35 -54l53 -85l6 170q1 11 21 11h7q95 0 95 -21q-3 -11 -14 -352q0 -15 -24 -15h-71l-4 2q-1 1 -5 5.5t-7.5 9.5t-3.5 9
q-35 70 -66 94l-4 -21l-4 -92q-1 -14 -60 -14h-9q-27 0 -45 2zM618 164q-4 0 -10 6q0 34 1.5 98.5t1.5 97.5q0 30 -1.5 96t-1.5 97q0 7 5 8l63 4h44q32 0 32 -10l-3 -272h52q12 0 15 -10v-11q0 -49 -5 -99q-4 -13 -41 -13q-64 0 -152 8z" />
    <glyph glyph-name=".null" horiz-adv-x="0" 
 />
    <glyph glyph-name="nonmarkingreturn" horiz-adv-x="333" 
 />
    <glyph glyph-name="NULL" horiz-adv-x="0" 
 />
    <glyph glyph-name="NULL" horiz-adv-x="0" 
 />
    <glyph glyph-name="CR" unicode="&#xd;" horiz-adv-x="250" 
 />
    <glyph glyph-name="space" unicode=" " horiz-adv-x="250" 
 />
    <glyph glyph-name="exclam" unicode="!" horiz-adv-x="230" 
d="M47 237l-17 458q13 39 54 39l56 1q56 0 56 -59l4 -449q-13 -25 -31 -35t-47 -10h-11q-18 0 -29.5 2.5t-22.5 15.5t-12 37zM55 70q0 26 18 47t46 21q73 0 73 -65q0 -25 -20 -46t-46 -21q-29 0 -50 18.5t-21 45.5z" />
    <glyph glyph-name="quotedbl" unicode="&#x22;" horiz-adv-x="338" 
d="M89 715q17 2 29 -4t18 -18.5t9 -27.5t2 -33.5t-2 -32t-3 -28.5t-2 -18q-1 -7 -1 -20q-5 -66 -11.5 -79t-38.5 -15q-18 -1 -35 16l-24 214q0 46 59 46zM250 720q17 2 29 -4t18 -18.5t9 -27.5t2 -33.5t-2 -32t-3 -28.5t-2 -18q-1 -7 -1 -20q-5 -66 -11.5 -79t-38.5 -15
q-18 -1 -35 16l-24 214q0 46 59 46z" />
    <glyph glyph-name="dollar" unicode="$" horiz-adv-x="624" 
d="M260 -71l1 78l-56 6q-83 12 -163 103q-12 15 -12 22q50 165 107 165q15 0 33.5 -11.5t31 -24l38.5 -38.5q25 -28 30 -28q7 0 12 16t5 29q0 15 -5 27.5t-17 22.5t-19.5 15.5t-26 15.5t-23.5 13q-108 64 -108 161q0 35 15 68q49 105 163 131l3 89q1 16 20 22.5t35 6.5
q74 0 74 -15v-48l-3 -49q54 -5 117 -26q19 -7 48 -21t34 -19v-2q-20 -40 -37 -78t-24 -56.5t-14.5 -33t-14 -19t-16.5 -4.5q-11 0 -45.5 22t-61.5 22q-20 0 -29.5 -5t-9.5 -22q0 -12 20.5 -24.5t50 -27.5t59.5 -35.5t50.5 -56t20.5 -80.5q0 -73 -41.5 -136.5t-112.5 -88.5
q0 -58 1 -86q-2 -8 -9.5 -13t-20 -6.5t-22.5 -1.5t-23 0.5t-15 0.5h-22q-5 1 -11.5 7.5t-6.5 12.5z" />
    <glyph glyph-name="quotesingle" unicode="'" horiz-adv-x="177" 
d="M89 715q17 2 29 -4t18 -18.5t9 -27.5t2 -33.5t-2 -32t-3 -28.5t-2 -18q-1 -7 -1 -20q-5 -66 -11.5 -79t-38.5 -15q-18 -1 -35 16l-24 214q0 46 59 46z" />
    <glyph glyph-name="parenleft" unicode="(" horiz-adv-x="318" 
d="M146 30l1 -1q-59 42 -88 136.5t-29 164.5q0 52 8 103t25.5 101.5t51 91t78.5 60.5q25 5 35 5q30 0 30 -26q0 -11 -4 -23q-41 -56 -53.5 -105.5t-20.5 -188.5q-2 -46 -2 -62q0 -69 11.5 -114t27.5 -62.5t32 -27t27.5 -17.5t11.5 -23q0 -40 -50 -40q-52 0 -92 28z" />
    <glyph glyph-name="parenright" unicode=")" horiz-adv-x="318" 
d="M171 29l1 1q-40 -28 -92 -28q-50 0 -50 40q0 15 11.5 23t27.5 17.5t32 27t27.5 62.5t11.5 114q0 16 -2 62q-8 139 -20.5 188.5t-53.5 105.5q-4 12 -4 23q0 26 30 26q10 0 35 -5q45 -20 78.5 -60.5t51 -91t25.5 -101.5t8 -103q0 -70 -29 -164.5t-88 -136.5z" />
    <glyph glyph-name="comma" unicode="," horiz-adv-x="208" 
d="M62 -108q0 12 4 36t4 36q0 9 -10 14.5t-20 15t-10 27.5q0 38 19 58.5t52 20.5q63 0 75 -58q0 -2 0.5 -12.5t0.5 -11.5q0 -25 -2 -35l-26 -84q-9 -29 -37 -29h-5q-45 0 -45 22z" />
    <glyph glyph-name="hyphen" unicode="-" horiz-adv-x="331" 
d="M65 405q24 0 210 6q25 5 25 -63q0 -33 -4.5 -45t-20.5 -12q-84 -4 -180 -4q-5 0 -15 -0.5t-15.5 -0.5t-13 1.5t-11.5 4t-7 7.5t-3 13v75q0 14 35 18z" />
    <glyph glyph-name="period" unicode="." horiz-adv-x="200" 
d="M30 59q0 31 23 50t58 19q26 0 42.5 -16t16.5 -38q0 -31 -19 -49.5t-54 -18.5q-30 0 -48.5 13.5t-18.5 39.5z" />
    <glyph glyph-name="slash" unicode="/" horiz-adv-x="365" 
d="M30 38v8l135 633q4 22 17 31q1 0 5.5 0.5t5.5 0.5q142 0 142 -39v-5l-130 -563l-11 -67q-2 -11 -48 -16.5t-71 -5.5q-45 0 -45 23z" />
    <glyph glyph-name="zero" unicode="0" horiz-adv-x="510" 
d="M279 711q52 0 89.5 -15t58.5 -38t33.5 -60t16 -72.5t3.5 -83.5q0 -12 -0.5 -37t-0.5 -38q0 -12 -0.5 -35t-0.5 -35q0 -50 -1 -78t-5.5 -64.5t-12.5 -56.5t-22.5 -42t-36.5 -33t-54 -18t-74 -7q-29 0 -47.5 1t-49.5 5.5t-51.5 15t-42 27.5t-33.5 46t-14 68q-4 90 -4 138
q0 56 1 83q2 54 2 91v5q3 38 5 55.5t8 48t14.5 44.5t24.5 34t38 28.5t55 15.5t75 7h26zM199 342q0 -65 6.5 -94.5t15 -35t29.5 -5.5h6q43 -1 51 20.5t8 122.5q0 109 -4 128q-8 45 -48 44h-4q-14 0 -23.5 -3t-16 -13.5t-10 -20t-5.5 -31t-2.5 -36t-1.5 -45.5q0 -5 -0.5 -15
t-0.5 -16z" />
    <glyph glyph-name="one" unicode="1" horiz-adv-x="498" 
d="M188 20q0 2 -1 9t-1 8q-1 12 1 48l-7 203q0 18 -2 38q0 27 -2 37q-9 4 -22 4q-15 0 -45 -3t-45 -3q-13 0 -17 11q-9 31 -16 68v15q-2 21 10 25l35 9q70 18 112 142q2 6 5 18t6 19t10 13q29 1 95 5t106 4h42q12 -8 13 -18l3 -675l-65 -8l-5 -1h-9.5h-8.5q-63 0 -169 17
q-18 3 -23 15z" />
    <glyph glyph-name="two" unicode="2" horiz-adv-x="594" 
d="M102 0q-12 47 -12 92q0 92 63 139q18 14 76 48t88.5 61.5t30.5 55.5q0 27 -16 40t-41 13q-43 0 -93 -32t-60 -67q-50 54 -108 186q49 71 119.5 115.5t159.5 44.5q115 0 182 -60.5t67 -167.5q0 -46 -17 -89t-33.5 -65t-52.5 -61.5t-47 -52.5l130 7q13 0 19.5 -6.5
t6.5 -24.5q0 -41 -5.5 -110.5t-10.5 -70.5q-10 -2 -25 -2.5t-51 0.5t-66 1q-217 0 -304 6z" />
    <glyph glyph-name="three" unicode="3" horiz-adv-x="553" 
d="M51 63q-6 1 -6 19q10 19 19 38.5t13.5 31t13 35.5t12.5 35q9 25 30 25l3 -3q3 -2 9.5 -6t14.5 -9t18.5 -9.5t21.5 -8.5t23.5 -6.5t23.5 -2.5q43 0 65 39q0 43 -25 51q-13 0 -35 -3t-35 -3q-15 0 -15 11v83q0 8 6.5 13t13.5 5q5 0 15 -1.5t15 -1.5q21 0 37.5 10.5
t16.5 30.5q0 45 -55 45q-4 0 -21 -5t-45 -17t-52 -26h-3q-23 0 -30 13l-66 131q-4 4 -4 8l1 1q37 55 101 83t136 28q99 0 172.5 -51t73.5 -138q0 -35 -24.5 -68t-60.5 -55l3 -3q4 -4 28 -16q27 -21 45 -55.5t18 -67.5q0 -79 -16 -123t-70 -77q-34 -20 -73.5 -30.5t-68.5 -12
t-83 -1.5q-66 8 -161 64z" />
    <glyph glyph-name="six" unicode="6" horiz-adv-x="575" 
d="M30 317q0 47 7.5 95.5t27 103t49.5 96t80 69t113 27.5h28t27 -1.5t28 -4.5t23.5 -8t22 -13.5t15.5 -20.5t11.5 -29t3.5 -39q0 -53 -24 -82q-54 13 -83 13q-74 0 -95 -66q23 4 70 4q100 0 155.5 -59.5t55.5 -155.5q0 -122 -72.5 -184.5t-200.5 -62.5h-22q-74 10 -126 63.5
t-73 119.5t-21 135zM234 256q2 -57 52 -70q38 -9 60.5 11.5t22.5 40.5q0 36 -20 60.5t-72 19.5q-43 -5 -43 -62z" />
    <glyph glyph-name="seven" unicode="7" horiz-adv-x="519" 
d="M98 45l-1 13l126 423h-127q-14 4 -24 9.5t-16 12.5t-9 11t-6.5 13.5t-4.5 11.5q0 1 -1 6l-1 5l-2 46q0 10 -1 16q-4 55 39 84q48 3 77 3q73 0 263 -9q41 -2 58 -15.5t20 -48.5q3 -41 -16 -108l-131 -464v2q-9 -47 -27.5 -59.5t-64.5 -12.5h-23q-3 0 -13.5 0.5t-14.5 0.5
h-4q-12 0 -26 2.5t-30 8.5t-27.5 18.5t-12.5 30.5z" />
    <glyph glyph-name="eight" unicode="8" horiz-adv-x="594" 
d="M312 -10h-2q-147 1 -213.5 67t-66.5 209q0 126 86 193q-18 32 -18 93v5q1 84 56.5 123t148.5 39q87 0 140 -49t53 -126q0 -11 -2 -24l1 1q-3 -33 -15 -64q74 -71 83 -182v1q1 -10 1 -32q0 -109 -65.5 -180.5t-186.5 -73.5zM277 307q-21 -3 -34.5 -19.5t-15.5 -37.5
t3.5 -41.5t25.5 -35t48 -15.5h14q22 5 35.5 24.5t14 42t-7.5 44t-30.5 33t-52.5 5.5zM280 556q-16 -3 -27 -15.5t-13 -29.5t3 -33t20.5 -27.5t37.5 -12.5h11q29 7 37.5 39.5t-11 59t-58.5 19.5z" />
    <glyph glyph-name="nine" unicode="9" horiz-adv-x="575" 
d="M545 391q0 -47 -7.5 -95.5t-27 -103t-49.5 -96t-80 -69t-113 -27.5h-28t-27 1.5t-28 4.5t-23.5 8t-22 13.5t-15.5 20.5t-11.5 29t-3.5 39q0 53 24 82q54 -13 83 -13q74 0 95 66q-23 -4 -70 -4q-100 0 -155.5 59.5t-55.5 155.5q0 122 72.5 184.5t200.5 62.5h22
q74 -10 126 -63.5t73 -119.5t21 -135zM341 452q-2 57 -52 70q-38 9 -60.5 -11.5t-22.5 -40.5q0 -36 20 -60.5t72 -19.5q43 5 43 62z" />
    <glyph glyph-name="colon" unicode=":" horiz-adv-x="200" 
d="M30 431q0 31 23 50t58 19q26 0 42.5 -16t16.5 -38q0 -31 -19 -49.5t-54 -18.5q-30 0 -48.5 13.5t-18.5 39.5zM30 59q0 31 23 50t58 19q26 0 42.5 -16t16.5 -38q0 -31 -19 -49.5t-54 -18.5q-30 0 -48.5 13.5t-18.5 39.5z" />
    <glyph glyph-name="semicolon" unicode=";" horiz-adv-x="208" 
d="M62 -108q0 12 4 36t4 36q0 9 -10 14.5t-20 15t-10 27.5q0 38 19 58.5t52 20.5q63 0 75 -58q0 -2 0.5 -12.5t0.5 -11.5q0 -25 -2 -35l-26 -84q-9 -29 -37 -29h-5q-45 0 -45 22zM30 431q0 31 23 50t58 19q26 0 42.5 -16t16.5 -38q0 -31 -19 -49.5t-54 -18.5
q-30 0 -48.5 13.5t-18.5 39.5z" />
    <glyph glyph-name="question" unicode="?" horiz-adv-x="385" 
d="M116 216l-3 52q0 46 15.5 89.5t34.5 70.5t34.5 53t15.5 39q0 9 -8 16t-17 7q-12 0 -22.5 -13.5t-17.5 -29t-21 -29t-31 -13.5q-33 0 -49.5 20.5t-16.5 46.5q0 73 49.5 124t117.5 51q65 0 111.5 -39t46.5 -109q0 -56 -11 -95.5t-26.5 -60t-31 -39t-26.5 -47t-11 -68.5
q0 -21 -2 -33t-13.5 -24t-33.5 -12h-24q-49 0 -60 43zM130 62q0 24 19.5 48t47.5 24q66 0 66 -66q0 -28 -22.5 -46t-52.5 -18q-26 0 -42 17t-16 41z" />
    <glyph glyph-name="at" unicode="@" horiz-adv-x="691" 
d="M394 243q-44 -28 -82 -28q-52 0 -87 49t-35 123q0 71 43.5 119t109.5 48q33 0 58 -21l22 24q8 4 17 4q41 0 41 -136q0 -24 -3 -80t-3 -85q0 -34 24 -34q2 0 6 0.5t5 0.5q20 0 42.5 50.5t22.5 110.5q0 55 -10.5 103.5t-34 93.5t-68 71t-105.5 26q-57 0 -100.5 -19.5
t-69.5 -49.5t-42.5 -70t-22.5 -77t-6 -76q0 -114 65 -215.5t145 -101.5q67 0 122 82l69 -45q-100 -110 -210 -110q-115 0 -196 114t-81 276q0 53 11 103.5t35 98t59 83t88 57t117 21.5q82 0 143.5 -26.5t97.5 -74.5t55 -105t25 -127v-42q0 -27 -3 -53.5t-12.5 -57t-25 -53
t-43.5 -37.5t-64 -15q-121 0 -121 63q0 6 2 18zM294 379q0 -31 14.5 -52.5t34.5 -21.5t34.5 21.5t14.5 52.5t-14.5 52.5t-34.5 21.5t-34.5 -21.5t-14.5 -52.5z" />
    <glyph glyph-name="A" unicode="A" horiz-adv-x="596" 
d="M30 -7l72 574q5 38 17 72q2 6 5.5 11.5t9 9t9.5 6t13 4.5t12.5 2.5t14 2.5t12.5 2q100 14 191 14q4 0 25 -0.5t24 -0.5q24 -1 42.5 -23t24.5 -49q8 -34 64 -564v-50q0 -3 -6.5 -5t-28 -2.5t-62 0t-109.5 2.5q-12 0 -17.5 14t-5.5 26l-19 147h-52q-1 -14 -8 -47t-8 -44
q-1 -5 -3 -35.5t-9 -49.5t-23 -26q-29 0 -84.5 -1.5t-84.5 -1.5q-16 0 -16 12zM271 349q0 -2 0.5 -8.5t0.5 -7.5l3 -2h8q50 0 50 12l1 165q-9 0 -21 1t-15 1q-13 0 -18 -10.5t-5 -43.5q0 -4 -2 -53.5t-2 -53.5z" />
    <glyph glyph-name="B" unicode="B" horiz-adv-x="555" 
d="M51 19l-21 624q45 43 175 50q75 4 145 -8.5t120.5 -46.5t53.5 -83q4 -70 -21.5 -142t-81.5 -97q49 -38 66.5 -68.5t21.5 -90.5q3 -41 -18.5 -71.5t-61 -47t-84 -25t-98.5 -10.5q-136 -7 -196 16zM234 218q-4 -2 1 -60v-11t0.5 -12t2.5 -9t7 -7t14 -1q32 1 52.5 21
t18.5 43q-1 18 -17.5 29.5t-48.5 10.5q-26 -3 -30 -4zM218 424h15q50 2 66 24.5t14 57.5q-1 23 -33.5 34.5t-62.5 10.5z" />
    <glyph glyph-name="C" unicode="C" horiz-adv-x="514" 
d="M474 0q-15 -1 -44 -1q-74 0 -132 9t-109.5 32t-85.5 60.5t-53.5 97t-19.5 139.5q0 62 10.5 112.5t37.5 97.5t70.5 79t114 51t162.5 19h42q0 -6 0.5 -25t0.5 -29q0 -30 -3.5 -56t-3.5 -34q0 -49 1 -53q-2 -11 -6.5 -14t-21.5 -3h-41q-34 0 -56 -3.5t-44.5 -15t-33.5 -37
t-11 -66.5q0 -81 30.5 -110.5t96.5 -36.5q13 -1 41.5 1t40.5 2q27 0 27 -58q0 -7 -0.5 -21t-0.5 -20v-109z" />
    <glyph glyph-name="D" unicode="D" horiz-adv-x="583" 
d="M51 7q-1 14 -3 87t-7 239t-11 345q3 13 15 13q3 0 9 0.5t8 0.5t7 0.5t8 0.5q129 6 202 -3q78 -9 140.5 -50.5t96.5 -107.5q3 -3 3 -8q36 -106 33.5 -200t-35.5 -164.5t-107.5 -113.5t-182.5 -48q-78 -3 -176 9zM272 526q-22 0 -22 -10l16 -352q29 1 49 39t25 91.5
t1.5 106.5t-22.5 89.5t-47 35.5z" />
    <glyph glyph-name="E" unicode="E" horiz-adv-x="509" 
d="M58 2q-27 9 -27 63q0 12 -0.5 84t-0.5 85q0 268 10 438q4 16 57.5 25t101.5 9h265q15 0 15 -28v-1l-15 -128q-1 -6 -9 -11t-23.5 -7.5t-30.5 -4.5t-38 -2.5t-36 -0.5h-36h-27q0 -8 -1 -65t0 -64q11 0 64.5 2t65.5 2q14 0 22.5 -2t15 -10.5t6.5 -24.5q0 -112 -30 -113
l-143 -6v-66h164q17 0 26.5 -14.5t6.5 -30.5q0 -78 -2 -108q-8 -10 -20 -13.5t-31 -3.5t-24 -1q-2 0 -49.5 -2.5t-49.5 -2.5q-31 0 -99 1t-101 1h-27z" />
    <glyph glyph-name="F" unicode="F" horiz-adv-x="477" 
d="M31 60q0 6 -0.5 42t-0.5 43q0 1 1 39.5t3 98.5t4 127.5t3 138.5t1 119q0 15 6.5 19.5t23.5 5.5q121 6 182 6q6 0 40.5 -0.5t41.5 -0.5q4 0 25.5 -3.5t26.5 -3.5l18 -1q19 -2 28.5 -7t12.5 -15q0 -66 -11 -157q-2 -7 -12 -11.5t-25 -7t-28 -3.5t-29 -2t-19 -1
q-21 -3 -51 -3l-8 -3v-143h92q19 0 19 -25q0 -130 -30 -130h-86q-5 -10 0 -81t5 -83q-4 -7 -14 -11t-26 -4.5t-30 0t-34.5 1.5t-31.5 1h-18q-51 0 -63 10.5t-16 44.5z" />
    <glyph glyph-name="G" unicode="G" horiz-adv-x="611" 
d="M332 2q-143 0 -222.5 97t-79.5 233q0 69 22 133t62.5 116.5t106 84.5t145.5 32h5q207 0 207 -51v-5l-1 -4l-21 -138q-3 -17 -23 -17q-17 0 -46.5 1.5t-42.5 1.5q-82 0 -127 -18t-60 -50t-15 -89t32 -95t91 -38q13 0 13 1l2 23v152l15 3l186 17v-338q0 -21 -22 -33.5
t-43.5 -15.5t-44.5 -3h-139z" />
    <glyph glyph-name="H" unicode="H" horiz-adv-x="674" 
d="M30 86l23 582q4 26 38 31.5t130 4.5h52q3 0 7.5 -4.5t4.5 -8.5v-38q-18 -178 -18 -323q78 0 123 9q6 1 6 14q19 176 19 317v3q0 11 0.5 16.5t5 10t13.5 4.5q14 0 47 1.5t57 1.5t50 -1.5t40 -8t14 -17.5q0 -2 1 -23l1 -21l-32 -603l-13 -11q-11 -9 -72.5 -16t-109.5 -6
q-26 0 -27 24l-6 141q-4 0 -27 0.5t-26 0.5q-47 0 -78 -7q0 -24 3.5 -69t3.5 -68q0 -22 -29.5 -28t-84.5 -6q-26 0 -52 0.5t-41 0.5q-23 5 -23 53v44z" />
    <glyph glyph-name="I" unicode="I" horiz-adv-x="283" 
d="M31 67q0 45 17 586q6 18 19.5 26.5t25 9.5t40.5 1q13 0 33 -0.5t27 -0.5q2 0 9.5 0.5t11.5 0.5q36 0 36 -23v-62q0 -89 1.5 -290t1.5 -291q-1 -9 -10 -14.5t-17.5 -6.5t-23 -2t-16.5 -1q-94 -14 -127 -14q-28 2 -28 81z" />
    <glyph glyph-name="J" unicode="J" horiz-adv-x="465" 
d="M31 111q0 12 4 16q23 23 53 49t45.5 39.5t14.5 16.5q18 -59 47 -59q14 0 22.5 18.5t11 51t2.5 59t-1 61.5t-1 40q0 43 -2 129t-2 138q4 9 18.5 13t39 5.5t33.5 3.5h98q21 0 20 -141v-22q0 -293 -10 -373q-11 -81 -60 -125.5t-129 -44.5q-37 0 -85 5q-32 3 -75.5 46.5
t-43.5 73.5z" />
    <glyph glyph-name="K" unicode="K" horiz-adv-x="599" 
d="M342 20l-99 205q0 -33 5.5 -103t5.5 -102l-11 -11q-3 -3 -58.5 -6t-69.5 -3h-10q-70 0 -73 26v101q0 90 -1 266t-1 265q0 20 10 25.5t34 5.5q12 0 124 -8q4 0 11 -0.5t10.5 -0.5t8.5 -1.5t7 -4t3.5 -7t1.5 -11.5l-11 -202q28 50 51.5 107.5t37.5 86t32 38.5q20 11 154 11
q32 0 45 -4t13 -17q0 -21 -37.5 -81t-143.5 -216l-28 -41v-1q0 -3 5 -12l30 -36q24 -29 51.5 -67.5t42 -60t46 -70t36.5 -55.5q5 -10 5 -16q0 -15 -13 -20l-198 12q-12 0 -16 8z" />
    <glyph glyph-name="L" unicode="L" horiz-adv-x="371" 
d="M54 24q-10 2 -17 22q1 45 -2 275t-3 260q0 2 -1 17.5t-1 29.5t1.5 30.5t6.5 28t13 14.5q57 0 138 -6q2 0 5.5 -0.5t5.5 -0.5q45 0 50 -19q1 -70 -2 -216t-3 -212v-25h14q32 0 46 -1.5t25 -10.5t11 -29q0 -11 -1 -69t-1 -69q-4 -10 -14 -11q-30 0 -94 -6t-97 -6
q-49 0 -80 4z" />
    <glyph glyph-name="M" unicode="M" horiz-adv-x="773" 
d="M517 49q0 3 -0.5 16.5t-0.5 15.5q0 31 2 91.5t2 90.5q0 54 -3 91.5t-3 44.5l-6 -6q-47 -59 -50 -65q-4 -5 -22 -36t-35 -51t-31 -20q-9 0 -14 3l-26 -4h-7q-16 0 -56 103t-43 103q-1 -11 -1 -201q0 -24 3.5 -74t3.5 -75v-4q0 -39 -18 -45q-20 -2 -169 -9l-11 11
q0 1 -0.5 18.5t-1 38.5t-0.5 31q0 193 18 519q3 64 33 64q95 0 123 -9t59 -53q45 -63 84 -124l4 -2l11 11q5 7 56.5 65.5t53.5 60.5q17 19 47 29t50 11t58 1h15q44 0 63 -9t23 -40q15 -119 15 -335q0 -164 -4 -252q-5 -5 -5 -15q0 -1 2 -7l1 -5q0 -17 -32 -17q-28 0 -110 14
q-5 1 -27.5 1.5t-34.5 5t-16 18.5z" />
    <glyph glyph-name="N" unicode="N" horiz-adv-x="601" 
d="M41 13q-11 4 -11 11l23 654q0 18 17 18q6 0 16 -1t19.5 -3t12.5 -2q1 0 37 -6q18 -3 25 -8q9 -6 13 -11.5t8 -15t8 -16.5l51 -77q6 -6 12 -23q32 -59 83 -145l11 299q0 5 2 8.5t5.5 6t7 3.5t8.5 1.5t8.5 0.5h9h6.5h24q42 -3 105 -11h2l2 -1q25 -6 25 -24v-1
q-5 -34 -23 -623q-1 -12 -14 -19t-26 -7h-119l-6 3l-21 25q0 1 -3.5 8.5t-3.5 9.5q-57 124 -109 167l-2 -2l-6 -35l-6 -164q-1 -20 -43 -20q-24 -3 -39 -3h-14q-14 -1 -19 -1q-46 0 -76 4z" />
    <glyph glyph-name="O" unicode="O" horiz-adv-x="587" 
d="M312 692q162 0 212.5 -96t18.5 -291q-31 -107 -58 -155q-28 -50 -76 -85t-103 -44q-128 -21 -194.5 49t-81.5 199q1 148 31 235l1 1v2q65 185 250 185zM223 288q0 -80 43 -80q36 0 60.5 73.5t24.5 140.5q0 27 -11 52t-36 25t-43 -25t-25.5 -63.5t-10 -67.5t-2.5 -55z" />
    <glyph glyph-name="P" unicode="P" horiz-adv-x="598" 
d="M34 20q-4 46 -4 126v50l24 484q1 21 98 21h13q25 1 54.5 0t60.5 -1t63 -3.5t62 -9t57 -17.5t48.5 -28.5t36.5 -42.5t21 -59v-39q0 -46 -8 -90.5t-26 -88t-51 -76.5t-77 -47q-21 -7 -53 -15q-9 -2 -33.5 -2t-36.5 -4q0 -2 -0.5 -12t-0.5 -11q0 -22 7.5 -61.5t8.5 -56.5
q0 -14 -15 -23q-43 -12 -151 -12h-55q-40 3 -43 18zM253 507v-148q33 0 59 14.5t26 45.5v67q0 20 -19 38t-39 18h-2q-20 0 -21 -6z" />
    <glyph glyph-name="Q" unicode="Q" horiz-adv-x="690" 
d="M412 8q-12 0 -35.5 -6.5t-36.5 -6.5q-158 0 -234 67.5t-76 237.5q0 413 406 400q76 -2 128.5 -44t74 -99.5t21.5 -125.5q0 -109 -22.5 -193.5t-83.5 -150.5l-4 -15q30 -55 30 -63q0 -14 -33 -34q-3 -2 -18.5 -13.5t-27.5 -18t-21 -6.5h-2q-7 0 -12 9l-33 53q-5 9 -19 9
h-2zM260 295q7 -20 26.5 -35t40.5 -15q53 0 81 50t28 107q0 40 -17.5 58t-58.5 18l-6 -1q-47 -12 -71 -57.5t-24 -99.5q0 -2 0.5 -12.5t0.5 -12.5z" />
    <glyph glyph-name="R" unicode="R" horiz-adv-x="598" 
d="M30 109l16 550q0 9 13 14.5t24 6.5q102 13 230 10h14q67 -4 101 -18q83 -34 118.5 -102.5t14 -143t-92.5 -128.5v-3q7 -26 43 -115t48 -135q2 -8 -3.5 -15t-13.5 -8q-41 -11 -70 -14q-73 -13 -118 -9q-19 0 -30 20.5t-24 73t-21 76.5h-2q-1 -22 0 -66t1 -66
q-1 -17 -7.5 -23.5t-24.5 -7.5q-8 1 -50.5 1.5t-50.5 -0.5q-3 0 -22.5 -0.5t-29.5 0t-26 1.5t-25 4t-12 8v89zM270 491q-1 -6 -1 -24v-16.5v-21v-19.5v-16v-6l2 -8q6 -1 9 -1q34 -1 57 23.5t24 58.5q1 32 -12.5 44.5t-45.5 13.5q-26 0 -33 -5v-23z" />
    <glyph glyph-name="S" unicode="S" horiz-adv-x="582" 
d="M30 138q35 165 93 165q15 0 34 -11.5t33.5 -24t41.5 -38.5q28 -28 32 -28q7 0 11 16t3 29q-1 15 -7 27.5t-19 22.5t-21 15.5t-27.5 15.5t-24.5 13q-113 64 -122 161q-3 35 9 68q53 140 232 140q85 0 168 -29q20 -7 50 -21t36 -19v-2q-17 -40 -30.5 -78t-19 -56.5t-12 -33
t-12.5 -19t-16 -4.5q-11 0 -47.5 22t-63.5 22q-20 0 -29 -5t-8 -22q1 -12 23 -24.5t53 -27.5t62 -35.5t54.5 -56t27.5 -80.5q8 -92 -50 -165t-161 -73q-24 0 -108 12q-49 6 -89 32t-82 70q-14 14 -14 22z" />
    <glyph glyph-name="T" unicode="T" horiz-adv-x="615" 
d="M164 38q0 81 1 233t1 229q-10 1 -65 1t-71 2v177q0 19 24 19q78 0 232.5 -4.5t231.5 -4.5h11.5t12.5 0.5t11 1t8 0.5h3q13 0 16.5 -4t3.5 -17q1 1 -2.5 -44.5t-6.5 -79.5q-2 -23 -10 -30t-32 -7q-16 0 -49 3t-50 3q-5 0 -5 -3l-11 -457q-1 -18 -12 -29.5t-35 -17
t-40 -7.5t-49.5 -3t-41.5 -1q-47 0 -59 7t-17 33z" />
    <glyph glyph-name="U" unicode="U" horiz-adv-x="682" 
d="M61 682q1 2 6 5.5t7 3.5q2 1 13.5 2t13.5 1q15 0 114 3h3q48 -3 58 -3h2q3 -1 4 -1q12 0 17 -1t10 -4t6 -9.5t1 -19.5q0 -1 -0.5 -8t-0.5 -8q-6 -68 -9.5 -141.5t-2.5 -151t13.5 -126.5t35.5 -47q13 -1 19.5 2t12.5 18t7.5 42.5t2 79t-1 124.5t-4.5 182q-1 25 -1 38v13
q2 4 13.5 7t27 3.5t32.5 1t30 0.5h20q5 0 32 1.5t53 4t42 6.5q21 -180 12 -343t-51 -236q-20 -35 -70.5 -69t-92.5 -44q-26 -7 -81 -7h-27q-29 2 -51 5.5t-53.5 13.5t-54 24t-48.5 40.5t-42.5 60.5t-30 85.5t-16 115t4 149.5t25.5 187z" />
    <glyph glyph-name="V" unicode="V" horiz-adv-x="741" 
d="M32 647l-2 28l10 8h199q5 0 10 -5.5t7.5 -11.5t5.5 -14.5t4 -9.5q17 -75 43 -194t39 -177l4 4l13 47q13 46 41 146.5t56 203.5q3 13 15 24q11 0 79 1.5t80 1.5q5 -1 16.5 -1.5t20 -1.5t18 -3t15 -6t5.5 -11v-4l-240 -632q-10 -17 -19 -29q-81 -15 -198 -7h-2
q-13 0 -14 12z" />
    <glyph glyph-name="W" unicode="W" horiz-adv-x="1009" 
d="M36 666q-6 12 -6 24v4l1 4l246 -6l30 -344l3 -3l72 138l92 4h39q48 0 68 -4q12 -2 30.5 -31t36.5 -68t19 -41l33 337l3 6q51 4 72 6q9 0 36.5 0.5t68.5 3t99 7.5v-3q0 -3 -1 -7q-1 -3 -1 -5l-210 -673q0 -2 -2.5 -7.5t-5.5 -6.5q-14 -4 -52 -4q-55 0 -66 15l-144 196
l-20 20h-3q-7 -7 -8 -9l-156 -193l-35 -34q-6 -6 -38 -6h-6q-20 0 -31 1t-25 9t-17 24z" />
    <glyph glyph-name="X" unicode="X" horiz-adv-x="740" 
d="M360 128l-23 35q-8 -5 -15 -17l-82 -134q-4 -7 -13 -7q-7 0 -19 1.5t-18 1.5h-6q-63 0 -128 -5h-2q-10 0 -17 7.5t-7 17.5v7l146 263l46 66q1 1 1 2l-1 2q-2 5 -3 5q-34 47 -99.5 149.5t-84.5 143.5q0 15 12 21t34 7.5t27 2.5q4 0 24 0.5t23 0.5h16.5t20.5 -0.5t10 -0.5
q4 0 22 -1t40.5 -2.5t28.5 -1.5q29 -2 37 -15q5 -10 32 -59.5t30 -54.5l12 -17h2l2 1l2 1l67 109q12 22 26 26q28 -1 78.5 1t69.5 2h42q17 -3 17 -22q0 -9 -10 -29q0 -1 -0.5 -1t-0.5 -1l-164 -257l-21 -40l3 -10q29 -65 62 -125l64 -108l27 -52v-10q0 -13 -12 -17
q-82 -15 -163 -15q-6 0 -23 1h-16q-34 0 -41 14z" />
    <glyph glyph-name="Y" unicode="Y" horiz-adv-x="792" 
d="M261 -2q0 3 -0.5 19.5t-0.5 18.5q-2 44 -1 129.5t-1 128.5q0 37 -2 41l-3 6l-223 338q1 6 23.5 9t56.5 3.5t65 0.5t59.5 -1t29.5 -1q25 -5 48 -62l3 -6l24 -57q1 -2 9.5 -19.5t16 -32.5t10.5 -20q2 2 3.5 4.5t3 5.5l2.5 5l31 63q1 3 17.5 43.5t18.5 49.5q8 14 50 14
q228 6 229 6h6q5 1 8 0.5t8 -1.5t7.5 -4t2.5 -8q0 -6 -2.5 -16.5t-2.5 -14.5l-59 -81l-147 -174q-29 -44 -42 -62q-1 -1 -2 -4.5t-1 -4.5q-2 -8 -6 -46.5t-5 -42.5q0 -7 -1 -38.5t-2.5 -72t-1.5 -50.5q0 -5 1 -17t1.5 -19.5t-3.5 -16t-12 -11.5q-17 -7 -22 -7l-182 -4
q-8 3 -12 9z" />
    <glyph glyph-name="Z" unicode="Z" horiz-adv-x="568" 
d="M46 15q0 10 9 166q3 9 10 14l173 218l29 41q-3 0 -14.5 0.5t-14.5 0.5q-33 0 -78 -2.5t-79 -2.5l-7 -1q-6 -1 -8 -1q-22 0 -27.5 8.5t-6.5 39.5q-2 108 -2 140v34q3 14 19 18q41 5 122.5 3.5t201.5 -5t142 -3.5h2q15 0 19 -13q0 -10 1 -65t1 -65v-56q-2 -8 -12 -25
l-11 -17q-11 -11 -62 -77t-58 -74l-33 -45v-4q64 0 115 -3h2q45 0 45 -27v-1q-10 -92 -12 -202q-3 -10 -9 -12h-70q-30 0 -90.5 3.5t-89.5 3.5q-32 0 -96.5 -3.5t-96.5 -3.5q-14 0 -14 18z" />
    <glyph glyph-name="a" unicode="a" horiz-adv-x="614" 
d="M30 17l126 651q23 26 143 26q17 0 43.5 -0.5t35.5 -0.5l35 -1q54 -10 85 -108q4 -11 18 -66.5t15 -58.5q2 -15 13.5 -81t12.5 -74l27 -267q0 -14 -26 -14h-13l-86 1q-44 4 -79 4q-16 10 -16 46q0 12 -0.5 25.5t-1.5 24.5t-2 21.5t-2 18.5t-2 14t-2 9v3q-9 0 -15 2
q-36 0 -66 -6l-4 -5q-1 -1 -2.5 -0.5t-2.5 0.5t-1.5 -4t-0.5 -12q0 -113 3 -138q-7 -7 -13 -8q-128 -5 -162 -4l-59 1zM286 342q7 -4 23 -4q3 0 8.5 0.5t7.5 0.5l20 -1l3 3l-1 131q-1 2 -2 10t-2.5 13t-6.5 9.5t-13 4.5h-2q-24 0 -27 -10q-9 -33 -9 -119q0 -2 0.5 -16
t0.5 -22z" />
    <glyph glyph-name="b" unicode="b" horiz-adv-x="586" 
d="M51 8q-16 4 -16 17l-5 678q1 8 11 8h5l11 1h67q128 0 210.5 -7t105.5 -13.5t46 -17.5q69 -33 69 -121q0 -68 -33 -129t-95 -85l1 -1q85 -26 85 -173q0 -109 -98 -134q-119 -31 -212 -31q-13 0 -152 8zM241 558q-4 -17 -4 -87q0 -5 -0.5 -11.5t-0.5 -9.5t0.5 -6.5t2 -5
t4 -2.5t6.5 -1q48 0 73 17.5t25 42.5t-23.5 44.5t-61.5 19.5q-14 0 -21 -1zM250 277q-1 -5 -1 -21q0 -54 4 -88q5 -1 14 -1q29 0 47.5 19.5t18.5 43.5q0 21 -15 35t-44 14q-15 0 -24 -2z" />
    <glyph glyph-name="c" unicode="c" horiz-adv-x="515" 
d="M406 702h21q44 0 44 -25l-4 -171q-8 1 -27 1q-31 0 -61.5 -7.5t-62 -24t-51 -49.5t-19.5 -79q0 -23 6 -50q14 -72 160 -72q8 0 24.5 1.5t25.5 1.5q18 0 23 -11v-62q0 -10 -1.5 -65.5t-1.5 -65.5q-6 -8 -32 -10.5t-35 -7.5h-56q-37 0 -67 2.5t-65.5 9t-63.5 20t-53.5 33
t-43 51t-25.5 72.5q-11 54 -11 114q0 196 77 294.5t263 98.5h17l8 1h11z" />
    <glyph glyph-name="d" unicode="d" horiz-adv-x="582" 
d="M238 12h-56q-87 0 -143 9l-8 583q-2 81 25 81q149 18 247 18q107 0 157.5 -20.5t77.5 -87.5l14 -65q0 -223 -22 -295v-1q-1 -2 -1 -3q-37 -110 -106.5 -164.5t-184.5 -54.5zM242 513q-12 -206 -12 -302q62 0 81 37.5t25 132.5v82q-4 51 -73 51q-1 0 -10 -0.5t-11 -0.5z
" />
    <glyph glyph-name="e" unicode="e" horiz-adv-x="522" 
d="M44 16q-14 58 -14 152q0 71 4.5 213.5t4.5 214.5q0 53 -1 80q8 24 68 24q38 0 166.5 -4t160.5 -5l21 -2l10 -10q0 -57 2 -81l10 -63l-1 -4v-3q0 -10 -6.5 -15.5t-16 -6t-20 -1t-18.5 -0.5q-66 0 -143 8l-3 -3l7 -51l5 -3q41 9 93 9h9.5h10h9t9 -1t7 -2.5t6 -4t3.5 -5.5
v-66q0 -83 -5 -94q-3 -8 -10 -8l-127 9l-1 -5v-8v-3l1 -2q0 -18 5 -73l148 12h2q32 -3 34 -14l5 -26q0 -6 2 -42t2 -43q1 -8 5 -30t4 -34v-10q-12 -8 -52 -8q-65 0 -121 7l-204 -9q-30 -4 -35 -4q-32 0 -36 15z" />
    <glyph glyph-name="f" unicode="f" horiz-adv-x="483" 
d="M34 75l-4 606l7 9l31 1l75 2.5t64 2.5l172 6h8q16 0 23 -0.5t18.5 -3.5t16.5 -10.5t6 -19.5q3 -75 -2 -161q-4 -14 -16 -17h-28q-24 0 -70 1.5t-69 1.5q-6 0 -7 -3l-2 -79q0 -1 1 -11t1 -12h123q28 0 30 -25l-1 -8l2 -120q-2 -14 -26 -14q-14 0 -50.5 -2t-51.5 -2
q-2 0 -6.5 -0.5t-8.5 -0.5h-4l-5 -2l9 -183q1 -7 -6.5 -12.5t-16.5 -7.5q-17 -5 -31 -5q-25 -1 -36 -1q-6 0 -25 0.5t-20 0.5q-6 0 -36 1t-35 1q-8 0 -17.5 4.5t-10.5 12.5z" />
    <glyph glyph-name="g" unicode="g" horiz-adv-x="622" 
d="M30 275q-1 13 -1 38q0 91 24.5 162t62 113t89.5 68.5t100 36t100 9.5q42 0 80.5 -6t59 -14.5t20.5 -15.5q0 -50 -8 -178q0 -3 -4.5 -7.5t-8.5 -4.5h-155q-58 0 -90 -46t-32 -107q0 -56 27 -94.5t76 -38.5l-1 190q0 18 13 27l178 -8q20 -2 20 -40v-22q0 -46 6 -138.5
t6 -137.5q0 -65 -204 -65h-66q-119 0 -203 85.5t-89 193.5z" />
    <glyph glyph-name="h" unicode="h" horiz-adv-x="652" 
d="M48 38l-17 638q-1 6 4 14.5t11 9.5l199 6q17 0 19 -11l7 -279q24 -3 50.5 -1.5t50.5 -0.5l3 2l-7 273q-1 6 9 11h1q42 -3 110 -1.5t101 -3.5q16 -2 24 -7.5t8 -20.5v-1q1 -2 0.5 -7t-1.5 -7l-2 -641q0 -11 -16.5 -16.5t-30.5 -5.5q-72 4 -97 8l-29 5q-1 0 -1 0.5t-1 0.5
q-36 10 -39 22v17q-2 29 -4 84.5t-3 84.5l-7 1l-102 -4q-4 -1 -5 -2l-4 -3l9 -188q0 -4 -8 -6.5t-12 -1.5q-87 -8 -134 -3l-74 8q-12 10 -12 26z" />
    <glyph glyph-name="i" unicode="i" horiz-adv-x="303" 
d="M30 37l7 634q1 10 7.5 20.5t14.5 10.5q7 0 29 -2h127q57 0 57 -31v-5l-1 -4q-1 -49 -0.5 -80.5t1.5 -187t1 -315.5v-35q-4 -13 -26 -21t-39 -9q-75 -7 -121 -7q-3 0 -19 0.5t-18 0.5q-20 2 -20 31z" />
    <glyph glyph-name="j" unicode="j" horiz-adv-x="525" 
d="M30 138q19 25 33 32l103 108q15 -34 27.5 -50.5t21.5 -17t19 0.5q1 0 4 1q19 4 26 35t2 84.5t-12.5 105.5t-19 121.5t-15.5 108.5q-1 12 7 15t28 3h38l90 4q46 11 81 11q6 0 13 -4t7 -11l11 -375q4 -151 -59.5 -232.5t-164.5 -81.5q-60 0 -134 41t-106 101z" />
    <glyph glyph-name="k" unicode="k" horiz-adv-x="621" 
d="M52 12q-6 1 -13 29q-5 208 -9 597v13q0 18 9 32.5t25 13.5l165 -6q29 0 29 -16v-6l-6 -40l4 -183l2 3l88 223q12 18 22 18l178 -1q11 0 22 -7.5t11 -17.5q0 -8 -5 -15q0 -1 -2 -3q-33 -47 -173 -296q-3 -5 -3 -14t9 -15l180 -272q6 -6 6 -18q0 -14 -11 -15l-180 -16
q-17 0 -34 22l-26 40l-59 133l-6 6v-12q0 -21 4.5 -63.5t4.5 -64.5v-20q-12 -29 -66 -29h-166z" />
    <glyph glyph-name="l" unicode="l" horiz-adv-x="410" 
d="M47 13q-9 0 -16 11q0 5 -0.5 32t-0.5 32q0 44 3 131.5t3 132.5q0 51 -2.5 162.5t-2.5 162.5q0 12 8 14l105 6h75q16 0 34 -3q6 -1 12.5 -5t6.5 -9l-5 -457h88q20 0 25 -16v-19q0 -74 -9 -166q-1 -6 -6.5 -10t-13.5 -6t-17 -3.5t-19.5 -2t-18.5 -0.5t-17 0.5t-11 0.5
q-61 0 -221 12z" />
    <glyph glyph-name="m" unicode="m" horiz-adv-x="871" 
d="M665 0q-1 0 -7.5 1.5t-7.5 1.5q-17 0 -45 4q-13 3 -15 19l-7 388h-3l-105 -205q-19 0 -57.5 2t-60.5 1q-19 29 -50.5 88t-43.5 79q0 3 -3 3l-3 -8q1 -202 13 -338q3 -25 2 -30.5t-7 -5.5h-8q-4 0 -40 2t-39 2l-123 -4q-12 8 -12 24v12l-3 12q-3 13 -5.5 47t-3.5 94.5
t3.5 180.5t15.5 280q1 14 9 23t23.5 12.5t25.5 4.5t28 2h13q25 1 71 -0.5t68 -1.5q13 -2 33 -39l66 -126q1 -2 6 -10t6 -10h1l125 180l237 1q18 -4 23 -36l55 -637v-1q1 -7 -5 -11.5t-13 -4.5q-30 -1 -83.5 1.5t-73.5 2.5z" />
    <glyph glyph-name="n" unicode="n" 
d="M31 9q0 6 -0.5 41.5t-0.5 42.5q0 13 0.5 48t0.5 36q12 446 14 494q4 12 34 17q3 0 19 0.5t18 0.5q5 0 21 -1h16q47 0 77 -3q39 0 45 -6q14 -11 26 -36l71 -168q3 -3 3 -6l2 2q0 21 -1 65.5t-1 66.5q0 46 2 63q3 16 37 19q56 6 143 6h57q7 -2 13 -16.5t6 -22.5v-4
q0 -3 -3 -38.5t-5.5 -67.5t-2.5 -39v-7v-18t-0.5 -23.5t-0.5 -24.5v-19q0 -55 2 -164.5t2 -164.5q0 -38 -11 -48t-48 -17l-12 -2q-2 0 -13 -3t-13 -3h-19q-6 0 -19.5 1.5t-20.5 1.5t-21.5 -2.5t-22.5 -2.5h-11q-2 1 -11 16l-116 279l-9 8q-3 -13 -6 -49v-2l-5 -227
q-1 -37 -69 -37h-147q-9 0 -20 14z" />
    <glyph glyph-name="o" unicode="o" 
d="M32 299q-2 26 -2 41q0 65 20 127.5t58 115t101 85t141 32.5q75 0 131.5 -27.5t88.5 -74.5t47.5 -103t15.5 -120q0 -56 -14 -116.5t-41.5 -118.5t-78 -95.5t-115.5 -37.5q-161 0 -249.5 74t-102.5 218zM265 303q0 -2 0.5 -6t0.5 -6q2 -20 4 -33t8 -30.5t19.5 -26.5
t32.5 -9q94 0 94 149q0 41 -5.5 69.5t-25.5 50t-54 21.5q-22 0 -37.5 -16t-22 -40.5t-9 -42t-3.5 -33.5q0 -4 -1.5 -12.5t-1.5 -13.5q0 -14 1 -21z" />
    <glyph glyph-name="p" unicode="p" horiz-adv-x="557" 
d="M39 15q-5 89 -5 214q0 39 0.5 115t0.5 115q0 124 -3 186q0 9 -2 15v3q0 7 5 11q15 2 52 10t56 10q2 0 16 0.5t31.5 1.5t23.5 1h26q41 0 78.5 -4.5t76.5 -18t67.5 -34.5t46.5 -56.5t18 -81.5q0 -119 -55.5 -186.5t-191.5 -95.5l20 -184v-18q-19 -23 -134 -23
q-6 0 -28.5 -0.5t-35 0t-29.5 2t-25 6t-9 12.5zM220 527q0 -73 14 -147h8q36 0 59 25.5t23 57.5q0 28 -19.5 47t-56.5 19q-4 0 -13.5 -1t-14.5 -1z" />
    <glyph glyph-name="q" unicode="q" horiz-adv-x="672" 
d="M430 -22q-4 6 -12 13t-13 16q-35 -12 -89 -12q-136 0 -211 88t-75 228q0 74 19 143t58 130t108.5 98t160.5 37q148 0 222 -127q44 -76 44 -208q0 -193 -112 -312v-3q0 -5 20.5 -25.5t24.5 -28.5v-34l-14 -14l-73 -48q-8 -4 -9 -4q-12 0 -23 18zM257 343q0 -32 4.5 -61
t21.5 -55.5t45 -26.5q29 0 47.5 15t26.5 45t10 56t2 68v26q0 42 -19 64.5t-47 22.5q-36 0 -64 -35.5t-28 -97.5q0 -14 1 -21z" />
    <glyph glyph-name="r" unicode="r" horiz-adv-x="587" 
d="M30 27l8 670q2 31 158 31h33q65 0 108.5 -3.5t88.5 -16t71.5 -35t43 -62t16.5 -96.5q0 -70 -48.5 -128.5t-121.5 -62.5q11 -20 61 -105t83 -150q3 -5 10 -14t11 -17t4 -16q0 -11 -12 -16.5t-24 -5.5h-165q-20 0 -102 204l-8 19l-6 -223l-173 1q-36 0 -36 26zM237 469
q6 -4 8 -11h74q18 0 27.5 20t9.5 40q0 25 -8.5 36.5t-33.5 22.5q-6 3 -12 3h-59q-7 0 -7 -54q0 -4 0.5 -24.5t0.5 -32.5z" />
    <glyph glyph-name="s" unicode="s" horiz-adv-x="545" 
d="M30 82l56 170q6 16 19 16q12 0 69.5 -30.5t97.5 -30.5q18 0 18 13q0 17 -17.5 30t-44 22t-57 25t-57 36.5t-44 60t-17.5 91.5q0 46 9.5 81t24 58.5t41 40t50.5 25.5t63 13.5t69 5.5t77 1h18l75 -7q13 -2 23.5 -9.5t10.5 -17.5v-9q0 -3 0.5 -11t0.5 -13q0 -60 -11 -125
t-30 -66q-8 2 -27 8.5t-36 12.5t-38.5 12.5t-39 10t-32.5 4.5t-23.5 -3.5t-8.5 -14.5q0 -12 18.5 -21.5t45.5 -16.5t59 -24.5t59 -42t45 -71.5t18 -111q0 -204 -210 -204q-160 0 -274 91z" />
    <glyph glyph-name="t" unicode="t" horiz-adv-x="611" 
d="M175 12l-6 455v3q-1 9 -1 11h-4q-18 0 -62 1t-57 1q-15 0 -15 18v11q6 42 6 179q1 10 8 18t16 8q28 0 69.5 -1t147 -3t241.5 -4q35 -5 49 -15t14 -40v-14l-15 -136q-3 -27 -42 -29l-119 -5v-452q-2 -9 -12 -14l-214 8h-4z" />
    <glyph glyph-name="u" unicode="u" horiz-adv-x="652" 
d="M33 588q0 20 4 40q0 9 8 49q1 8 6.5 12t17 8t13.5 5q2 0 18.5 0.5t19.5 0.5q25 0 71 -3.5t67 -3.5q17 -3 20 -16v-34l-14 -117q-3 -18 -3 -100q0 -1 -0.5 -11t-0.5 -22.5v-18.5v-15v-18l1 -8q0 -26 8 -63q0 -1 0.5 -3.5t0.5 -3.5q3 -16 5.5 -26t12 -19.5t24.5 -9.5
q21 0 35.5 24.5t17.5 48.5q15 89 15 224q-3 46 -6 83t-4.5 54t-1.5 25q0 24 29 24q14 0 94 1.5t108 1.5q11 -3 11 -18l10 -201q4 -90 -2 -161.5t-19.5 -120t-36.5 -83.5t-46 -54.5t-56 -30.5t-59.5 -14t-62.5 -3q-82 0 -139.5 24.5t-92 72t-52.5 117.5t-21.5 161t0.5 202z
" />
    <glyph glyph-name="v" unicode="v" horiz-adv-x="727" 
d="M246 0q-7 18 -33 123q-8 26 -89.5 274.5t-93.5 288.5q14 0 93 0.5t93 0.5q22 0 46 3q9 -5 18 -33.5t12 -48.5l48 -243q4 -46 10 -69q32 190 97 372q7 10 23 16t29 8t34.5 3.5t24.5 1.5q50 5 66 5h8q1 0 12.5 0.5t18 0t16 -2t14 -7t4.5 -13.5q0 -5 -12 -35
q-82 -197 -245 -626q-5 -13 -17 -14q8 3 -4 2q-8 -1 -37 -4q-130 -14 -136 -3z" />
    <glyph glyph-name="w" unicode="w" horiz-adv-x="910" 
d="M127 18q-20 97 -57 327q-9 57 -24.5 186.5t-15.5 144.5v10q29 0 85 3.5t92 3.5h28q4 -6 6.5 -27t13.5 -105.5t30 -198.5l1 -6q7 14 15 45t15.5 53.5t14.5 25.5q139 18 151 20q22 1 31 -7.5t16 -33.5l55 -198l3 -3l59 391q2 20 11 24q1 0 8.5 3.5t17 6t34.5 5t59 2.5
q47 0 104 -4l-145 -659q-1 -3 -3.5 -5.5t-8.5 -4.5t-12.5 -3.5t-17 -3t-19 -2.5t-23 -2t-25 -1.5t-28 -1.5t-29.5 -2h-3q-32 0 -40 8q-8 12 -22 27q-17 24 -38.5 57t-32.5 50t-13 17q-13 0 -28 -32q-7 -17 -33.5 -69t-29.5 -55q-34 -2 -179 -8q-16 -4 -23 22z" />
    <glyph glyph-name="x" unicode="x" horiz-adv-x="733" 
d="M700 649l-56 -75l-150 -229l208 -315l1 -6q-47 -6 -125 -6h-2q-124 -7 -129 9l-81 123l-80 -123q-5 -16 -129 -9h-2q-78 0 -125 6l1 6l208 315l-150 229l-56 75q0 2 -1.5 7.5t-1.5 7.5q0 8 14.5 13t45.5 6.5t53 2t66.5 0t55.5 -0.5l7 -3l94 -144l95 144l7 3
q11 0 55.5 0.5t66.5 0t53 -2t45.5 -6.5t14.5 -13q0 -2 -1.5 -7.5t-1.5 -7.5z" />
    <glyph glyph-name="y" unicode="y" horiz-adv-x="737" 
d="M251 15q0 40 0.5 114t0 106t-4 73t-10.5 68q-2 6 -4.5 9t-6.5 5.5t-7 6.5q-18 22 -103.5 150t-85.5 137q0 5 23 5q9 0 118 5.5t114 5.5q8 0 20 -26.5t32 -70.5t41 -73q20 24 47.5 88t29.5 67q4 7 124 12t124 3q20 -17 -58.5 -151.5t-110.5 -166.5l-3 -3q0 -218 -3 -337
q-13 -21 -47 -24q-23 0 -191 -6h-36z" />
    <glyph glyph-name="z" unicode="z" horiz-adv-x="596" 
d="M530 -3l-459 4q-10 0 -10 71q0 43 3 88t5 47q5 27 37 53l212 210v3h-273q-13 0 -13 23q-2 44 -2 171q12 18 41 18h41q22 0 115.5 2.5t171.5 2.5q38 0 156 -2q0 -30 5 -102.5t5 -110.5q0 -15 -196 -231q-17 -19 -17 -33q0 -11 18 -11l192 8q3 -41 3 -192q-2 -5 -8.5 -7
t-8.5 -9z" />
    <glyph glyph-name="Agrave" unicode="&#xc0;" horiz-adv-x="596" 
d="M30 -7l72 574q5 38 17 72q2 6 5.5 11.5t9 9t9.5 6t13 4.5t12.5 2.5t14 2.5t12.5 2q100 14 191 14q4 0 25 -0.5t24 -0.5q24 -1 42.5 -23t24.5 -49q8 -34 64 -564v-50q0 -3 -6.5 -5t-28 -2.5t-62 0t-109.5 2.5q-12 0 -17.5 14t-5.5 26l-19 147h-52q-1 -14 -8 -47t-8 -44
q-1 -5 -3 -35.5t-9 -49.5t-23 -26q-29 0 -84.5 -1.5t-84.5 -1.5q-16 0 -16 12zM376 772q2 -5 2.5 -8.5t-1.5 -7t-3 -5t-5.5 -5t-5.5 -4.5q-2 -1 -11.5 -8.5t-14.5 -9.5q-6 -1 -8.5 -1.5t-9 2t-9 4t-8 5t-6.5 4.5l-59 39q-21 12 -28 27q-4 10 16.5 32t34.5 28l4 1l4 1
q8 -1 14.5 -6t15 -14t10.5 -11q4 -4 17 -15.5t28 -24.5t17 -15zM271 349q0 -2 0.5 -8.5t0.5 -7.5l3 -2h8q50 0 50 12l1 165q-9 0 -21 1t-15 1q-13 0 -18 -10.5t-5 -43.5q0 -4 -2 -53.5t-2 -53.5z" />
    <glyph glyph-name="Aacute" unicode="&#xc1;" horiz-adv-x="596" 
d="M30 -7l72 574q5 38 17 72q2 6 5.5 11.5t9 9t9.5 6t13 4.5t12.5 2.5t14 2.5t12.5 2q100 14 191 14q4 0 25 -0.5t24 -0.5q24 -1 42.5 -23t24.5 -49q8 -34 64 -564v-50q0 -3 -6.5 -5t-28 -2.5t-62 0t-109.5 2.5q-12 0 -17.5 14t-5.5 26l-19 147h-52q-1 -14 -8 -47t-8 -44
q-1 -5 -3 -35.5t-9 -49.5t-23 -26q-29 0 -84.5 -1.5t-84.5 -1.5q-16 0 -16 12zM211 772l6 8q2 2 17 15t28 24.5t17 15.5q2 2 10.5 11t15 14t14.5 6q1 0 4 -1t4 -1q14 -6 34.5 -28t16.5 -32q-7 -15 -28 -27l-59 -39q-1 -1 -6.5 -4.5t-8 -5t-9 -4t-9 -2t-8.5 1.5
q-5 2 -14.5 9.5t-11.5 8.5q-1 1 -5.5 4.5t-5.5 5t-3 5t-1.5 7t2.5 8.5zM271 349q0 -2 0.5 -8.5t0.5 -7.5l3 -2h8q50 0 50 12l1 165q-9 0 -21 1t-15 1q-13 0 -18 -10.5t-5 -43.5q0 -4 -2 -53.5t-2 -53.5z" />
    <glyph glyph-name="Acircumflex" unicode="&#xc2;" horiz-adv-x="596" 
d="M30 -7l72 574q5 38 17 72q2 6 5.5 11.5t9 9t9.5 6t13 4.5t12.5 2.5t14 2.5t12.5 2q100 14 191 14q4 0 25 -0.5t24 -0.5q24 -1 42.5 -23t24.5 -49q8 -34 64 -564v-50q0 -3 -6.5 -5t-28 -2.5t-62 0t-109.5 2.5q-12 0 -17.5 14t-5.5 26l-19 147h-52q-1 -14 -8 -47t-8 -44
q-1 -5 -3 -35.5t-9 -49.5t-23 -26q-29 0 -84.5 -1.5t-84.5 -1.5q-16 0 -16 12zM291 791l-37 -53q-8 -12 -68 -12q-11 0 -19.5 7t-8.5 14q0 9 8 17l75 70q21 27 43 27q36 0 84 -48l5 -5q1 0 3 -2q1 -1 13.5 -13t23.5 -23l13 -13q9 -9 9 -14q0 -10 -27 -18h-1q-23 -2 -54 -2
h-18q-4 2 -6 4.5t-3.5 5.5t-3.5 6q-3 2 -6.5 9.5t-10 19.5t-14.5 23zM271 349q0 -2 0.5 -8.5t0.5 -7.5l3 -2h8q50 0 50 12l1 165q-9 0 -21 1t-15 1q-13 0 -18 -10.5t-5 -43.5q0 -4 -2 -53.5t-2 -53.5z" />
    <glyph glyph-name="Atilde" unicode="&#xc3;" horiz-adv-x="596" 
d="M30 -7l72 574q5 38 17 72q2 6 5.5 11.5t9 9t9.5 6t13 4.5t12.5 2.5t14 2.5t12.5 2q100 14 191 14q4 0 25 -0.5t24 -0.5q24 -1 42.5 -23t24.5 -49q8 -34 64 -564v-50q0 -3 -6.5 -5t-28 -2.5t-62 0t-109.5 2.5q-12 0 -17.5 14t-5.5 26l-19 147h-52q-1 -14 -8 -47t-8 -44
q-1 -5 -3 -35.5t-9 -49.5t-23 -26q-29 0 -84.5 -1.5t-84.5 -1.5q-16 0 -16 12zM247 777q-13 0 -21 -23.5t-19 -23.5q-5 0 -14.5 4t-11.5 4l-24 7q-9 4 -9 11q0 27 27.5 63.5t54.5 36.5q5 1 14 1q30 0 56 -20t34 -20q12 0 23.5 19.5t20.5 19.5q7 0 30.5 -9t23.5 -13
q0 -8 -14 -36q-21 -34 -38.5 -49.5t-48.5 -15.5q-25 0 -53.5 22t-30.5 22zM271 349q0 -2 0.5 -8.5t0.5 -7.5l3 -2h8q50 0 50 12l1 165q-9 0 -21 1t-15 1q-13 0 -18 -10.5t-5 -43.5q0 -4 -2 -53.5t-2 -53.5z" />
    <glyph glyph-name="Adieresis" unicode="&#xc4;" horiz-adv-x="596" 
d="M30 -7l72 574q5 38 17 72q2 6 5.5 11.5t9 9t9.5 6t13 4.5t12.5 2.5t14 2.5t12.5 2q100 14 191 14q4 0 25 -0.5t24 -0.5q24 -1 42.5 -23t24.5 -49q8 -34 64 -564v-50q0 -3 -6.5 -5t-28 -2.5t-62 0t-109.5 2.5q-12 0 -17.5 14t-5.5 26l-19 147h-52q-1 -14 -8 -47t-8 -44
q-1 -5 -3 -35.5t-9 -49.5t-23 -26q-29 0 -84.5 -1.5t-84.5 -1.5q-16 0 -16 12zM312 783q0 31 23 50t58 19q26 0 42.5 -16t16.5 -38q0 -31 -19 -49.5t-54 -18.5q-30 0 -48.5 13.5t-18.5 39.5zM148 783v5q0 32 17.5 48t43.5 16t46.5 -15.5t20.5 -40.5q0 -27 -21.5 -46.5
t-50.5 -19.5q-52 0 -56 53zM271 349q0 -2 0.5 -8.5t0.5 -7.5l3 -2h8q50 0 50 12l1 165q-9 0 -21 1t-15 1q-13 0 -18 -10.5t-5 -43.5q0 -4 -2 -53.5t-2 -53.5z" />
    <glyph glyph-name="Aring" unicode="&#xc5;" horiz-adv-x="596" 
d="M30 -7l72 574q5 38 17 72q2 6 5.5 11.5t9 9t9.5 6t13 4.5t12.5 2.5t14 2.5t12.5 2q100 14 191 14q4 0 25 -0.5t24 -0.5q24 -1 42.5 -23t24.5 -49q8 -34 64 -564v-50q0 -3 -6.5 -5t-28 -2.5t-62 0t-109.5 2.5q-12 0 -17.5 14t-5.5 26l-19 147h-52q-1 -14 -8 -47t-8 -44
q-1 -5 -3 -35.5t-9 -49.5t-23 -26q-29 0 -84.5 -1.5t-84.5 -1.5q-16 0 -16 12zM194 827q0 41 23.5 65.5t58.5 24.5q46 0 77 -23t31 -62q0 -37 -23.5 -63t-63.5 -26q-42 0 -72 24t-31 60zM271 349q0 -2 0.5 -8.5t0.5 -7.5l3 -2h8q50 0 50 12l1 165q-9 0 -21 1t-15 1
q-13 0 -18 -10.5t-5 -43.5q0 -4 -2 -53.5t-2 -53.5zM254 823q6 -29 31 -29q16 0 29 12.5t13 29.5q0 16 -12.5 24t-26.5 8q-15 0 -25 -9.5t-10 -24.5q0 -7 1 -11z" />
    <glyph glyph-name="AE" unicode="&#xc6;" horiz-adv-x="874" 
d="M423 4q-27 9 -27 63q0 12 -0.5 84t-0.5 85v46h-42v-1l-38 2q-3 -15 -25 -88.5t-24 -83.5q-2 -5 -9.5 -35.5t-17.5 -49.5t-27 -25q-28 1 -83.5 2t-83.5 2q-6 0 -10.5 3t-3.5 9l168 571q9 32 28 71q10 20 35 30t69.5 13.5t112 4t163 0t222.5 1.5q15 0 15 -28v-1l-15 -128
q-1 -6 -9 -11t-23.5 -7.5t-30.5 -4.5t-38 -2.5t-36 -0.5h-36h-27q0 -8 -1.5 -65t0.5 -64q11 0 64.5 2t65.5 2q14 0 22.5 -2t15 -10.5t6.5 -24.5q0 -112 -30 -113l-143 -6v-66h164q17 0 26.5 -14.5t6.5 -30.5q0 -78 -2 -108q-8 -10 -20 -13.5t-31 -3.5t-24 -1
q-2 0 -49.5 -2.5t-49.5 -2.5q-31 0 -99 1t-101 1h-27zM348 446q-2 -8 -2 -16l3 -2q6 -1 8 -1h2h5h7.5h11h13.5q0 31 2 95q-12 2 -15 2q-12 1 -18.5 -9.5t-13.5 -43.5z" />
    <glyph glyph-name="Ccedilla" unicode="&#xc7;" horiz-adv-x="514" 
d="M139 -159q4 2 33 7.5t49 16t20 27.5q0 15 -15 17.5t-31.5 3.5t-18.5 13q0 4 34 105q-166 62 -178 253q-5 70 2 126.5t31.5 111.5t68 92t117.5 59.5t174 22.5h42q0 -6 0.5 -25t0.5 -29q0 -17 -1 -24q-6 -37 -6 -86q0 -28 1 -33q-2 -11 -6.5 -14t-21.5 -3h-19
q-31 0 -47.5 -0.5t-42.5 -5.5t-40 -16t-25 -32.5t-12 -53.5q-1 -47 6.5 -77.5t25.5 -47.5t39.5 -24.5t55.5 -11.5q37 0 82 3q10 0 16 -5.5t8 -19t2.5 -22t0 -28t-0.5 -24.5v-109l-9 -8q-93 -3 -168 7q-14 -27 -17 -39q4 -2 12.5 -3.5t10.5 -1.5q29 -5 46.5 -25.5t17.5 -52.5
q0 -33 -34.5 -63t-72 -46t-74.5 -25q-12 1 -56 86l-1 3q0 1 1 1z" />
    <glyph glyph-name="Egrave" unicode="&#xc8;" horiz-adv-x="509" 
d="M58 2q-27 9 -27 63q0 12 -0.5 84t-0.5 85q0 268 10 438q4 16 57.5 25t101.5 9h265q15 0 15 -28v-1l-15 -128q-1 -6 -9 -11t-23.5 -7.5t-30.5 -4.5t-38 -2.5t-36 -0.5h-36h-27q0 -8 -1 -65t0 -64q11 0 64.5 2t65.5 2q14 0 22.5 -2t15 -10.5t6.5 -24.5q0 -112 -30 -113
l-143 -6v-66h164q17 0 26.5 -14.5t6.5 -30.5q0 -78 -2 -108q-8 -10 -20 -13.5t-31 -3.5t-24 -1q-2 0 -49.5 -2.5t-49.5 -2.5q-31 0 -99 1t-101 1h-27zM342 788q2 -5 2.5 -8.5t-1.5 -7t-3 -5t-5.5 -5t-5.5 -4.5q-2 -1 -11.5 -8.5t-14.5 -9.5q-6 -1 -8.5 -1.5t-9 2t-9 4t-8 5
t-6.5 4.5l-59 39q-21 12 -28 27q-4 10 16.5 32t34.5 28l4 1l4 1q8 -1 14.5 -6t15 -14t10.5 -11q4 -4 17 -15.5t28 -24.5t17 -15z" />
    <glyph glyph-name="Eacute" unicode="&#xc9;" horiz-adv-x="509" 
d="M58 2q-27 9 -27 63q0 12 -0.5 84t-0.5 85q0 268 10 438q4 16 57.5 25t101.5 9h265q15 0 15 -28v-1l-15 -128q-1 -6 -9 -11t-23.5 -7.5t-30.5 -4.5t-38 -2.5t-36 -0.5h-36h-27q0 -8 -1 -65t0 -64q11 0 64.5 2t65.5 2q14 0 22.5 -2t15 -10.5t6.5 -24.5q0 -112 -30 -113
l-143 -6v-66h164q17 0 26.5 -14.5t6.5 -30.5q0 -78 -2 -108q-8 -10 -20 -13.5t-31 -3.5t-24 -1q-2 0 -49.5 -2.5t-49.5 -2.5q-31 0 -99 1t-101 1h-27zM177 788l6 8q2 2 17 15t28 24.5t17 15.5q2 2 10.5 11t15 14t14.5 6q1 0 4 -1t4 -1q14 -6 34.5 -28t16.5 -32
q-7 -15 -28 -27l-59 -39q-1 -1 -6.5 -4.5t-8 -5t-9 -4t-9 -2t-8.5 1.5q-5 2 -14.5 9.5t-11.5 8.5q-1 1 -5.5 4.5t-5.5 5t-3 5t-1.5 7t2.5 8.5z" />
    <glyph glyph-name="Ecircumflex" unicode="&#xca;" horiz-adv-x="509" 
d="M58 2q-27 9 -27 63q0 12 -0.5 84t-0.5 85q0 268 10 438q4 16 57.5 25t101.5 9h265q15 0 15 -28v-1l-15 -128q-1 -6 -9 -11t-23.5 -7.5t-30.5 -4.5t-38 -2.5t-36 -0.5h-36h-27q0 -8 -1 -65t0 -64q11 0 64.5 2t65.5 2q14 0 22.5 -2t15 -10.5t6.5 -24.5q0 -112 -30 -113
l-143 -6v-66h164q17 0 26.5 -14.5t6.5 -30.5q0 -78 -2 -108q-8 -10 -20 -13.5t-31 -3.5t-24 -1q-2 0 -49.5 -2.5t-49.5 -2.5q-31 0 -99 1t-101 1h-27zM257 807l-37 -53q-8 -12 -68 -12q-11 0 -19.5 7t-8.5 14q0 9 8 17l75 70q21 27 43 27q36 0 84 -48l5 -5q1 0 3 -2
q1 -1 13.5 -13t23.5 -23l13 -13q9 -9 9 -14q0 -10 -27 -18h-1q-23 -2 -54 -2h-18q-4 2 -6 4.5t-3.5 5.5t-3.5 6q-3 2 -6.5 9.5t-10 19.5t-14.5 23z" />
    <glyph glyph-name="Edieresis" unicode="&#xcb;" horiz-adv-x="509" 
d="M58 2q-27 9 -27 63q0 12 -0.5 84t-0.5 85q0 268 10 438q4 16 57.5 25t101.5 9h265q15 0 15 -28v-1l-15 -128q-1 -6 -9 -11t-23.5 -7.5t-30.5 -4.5t-38 -2.5t-36 -0.5h-36h-27q0 -8 -1 -65t0 -64q11 0 64.5 2t65.5 2q14 0 22.5 -2t15 -10.5t6.5 -24.5q0 -112 -30 -113
l-143 -6v-66h164q17 0 26.5 -14.5t6.5 -30.5q0 -78 -2 -108q-8 -10 -20 -13.5t-31 -3.5t-24 -1q-2 0 -49.5 -2.5t-49.5 -2.5q-31 0 -99 1t-101 1h-27zM278 799q0 31 23 50t58 19q26 0 42.5 -16t16.5 -38q0 -31 -19 -49.5t-54 -18.5q-30 0 -48.5 13.5t-18.5 39.5zM114 799v5
q0 32 17.5 48t43.5 16t46.5 -15.5t20.5 -40.5q0 -27 -21.5 -46.5t-50.5 -19.5q-52 0 -56 53z" />
    <glyph glyph-name="Igrave" unicode="&#xcc;" horiz-adv-x="283" 
d="M31 67q0 45 17 586q6 18 19.5 26.5t25 9.5t40.5 1q13 0 33 -0.5t27 -0.5q2 0 9.5 0.5t11.5 0.5q36 0 36 -23v-62q0 -89 1.5 -290t1.5 -291q-1 -9 -10 -14.5t-17.5 -6.5t-23 -2t-16.5 -1q-94 -14 -127 -14q-28 2 -28 81zM230 774q2 -5 2.5 -8.5t-1.5 -7t-3 -5t-5.5 -5
t-5.5 -4.5q-2 -1 -11.5 -8.5t-14.5 -9.5q-6 -1 -8.5 -1.5t-9 2t-9 4t-8 5t-6.5 4.5l-59 39q-21 12 -28 27q-4 10 16.5 32t34.5 28l4 1l4 1q8 -1 14.5 -6t15 -14t10.5 -11q4 -4 17 -15.5t28 -24.5t17 -15z" />
    <glyph glyph-name="Iacute" unicode="&#xcd;" horiz-adv-x="283" 
d="M31 67q0 45 17 586q6 18 19.5 26.5t25 9.5t40.5 1q13 0 33 -0.5t27 -0.5q2 0 9.5 0.5t11.5 0.5q36 0 36 -23v-62q0 -89 1.5 -290t1.5 -291q-1 -9 -10 -14.5t-17.5 -6.5t-23 -2t-16.5 -1q-94 -14 -127 -14q-28 2 -28 81zM65 774q0 1 1 2t2.5 3t2.5 3q2 2 17 15t28 24.5
t17 15.5q2 2 10.5 11t15 14t14.5 6q1 0 4 -1t4 -1q14 -6 34.5 -28t16.5 -32q-7 -15 -28 -27l-59 -39q-1 -1 -6.5 -4.5t-8 -5t-9 -4t-9 -2t-8.5 1.5q-5 2 -14.5 9.5t-11.5 8.5q-1 1 -5.5 4.5t-5.5 5t-3 5t-1.5 7t2.5 8.5z" />
    <glyph glyph-name="Icircumflex" unicode="&#xce;" horiz-adv-x="283" 
d="M31 67q0 45 17 586q6 18 19.5 26.5t25 9.5t40.5 1q13 0 33 -0.5t27 -0.5q2 0 9.5 0.5t11.5 0.5q36 0 36 -23v-62q0 -89 1.5 -290t1.5 -291q-1 -9 -10 -14.5t-17.5 -6.5t-23 -2t-16.5 -1q-94 -14 -127 -14q-28 2 -28 81zM145 793l-37 -53q-8 -12 -68 -12q-11 0 -19.5 7
t-8.5 14q0 9 8 17l75 70q21 27 43 27q36 0 84 -48l5 -5q1 0 3 -2q1 -1 13.5 -13t23.5 -23l13 -13q9 -9 9 -14q0 -10 -27 -18h-1q-23 -2 -54 -2h-18q-4 2 -6 4.5t-3.5 5.5t-3.5 6q-3 2 -6.5 9.5t-10 19.5t-14.5 23z" />
    <glyph glyph-name="Idieresis" unicode="&#xcf;" horiz-adv-x="283" 
d="M31 67q0 45 17 586q6 18 19.5 26.5t25 9.5t40.5 1q13 0 33 -0.5t27 -0.5q2 0 9.5 0.5t11.5 0.5q36 0 36 -23v-62q0 -89 1.5 -290t1.5 -291q-1 -9 -10 -14.5t-17.5 -6.5t-23 -2t-16.5 -1q-94 -14 -127 -14q-28 2 -28 81zM166 785q0 31 23 50t58 19q26 0 42.5 -16t16.5 -38
q0 -31 -19 -49.5t-54 -18.5q-30 0 -48.5 13.5t-18.5 39.5zM2 785v5q0 32 17.5 48t43.5 16t46.5 -15.5t20.5 -40.5q0 -27 -21.5 -46.5t-50.5 -19.5q-52 0 -56 53z" />
    <glyph glyph-name="Ntilde" unicode="&#xd1;" horiz-adv-x="601" 
d="M41 13q-11 4 -11 11l23 654q0 18 17 18q6 0 16 -1t19.5 -3t12.5 -2q1 0 37 -6q18 -3 25 -8q9 -6 13 -11.5t8 -15t8 -16.5l51 -77q6 -6 12 -23q32 -59 83 -145l11 299q0 5 2 8.5t5.5 6t7 3.5t8.5 1.5t8.5 0.5h9h6.5h24q42 -3 105 -11h2l2 -1q25 -6 25 -24v-1
q-5 -34 -23 -623q-1 -12 -14 -19t-26 -7h-119l-6 3l-21 25q0 1 -3.5 8.5t-3.5 9.5q-57 124 -109 167l-2 -2l-6 -35l-6 -164q-1 -20 -43 -20q-24 -3 -39 -3h-14q-14 -1 -19 -1q-46 0 -76 4zM247 779q-13 0 -21 -23.5t-19 -23.5q-5 0 -14.5 4t-11.5 4l-24 7q-9 4 -9 11
q0 27 27.5 63.5t54.5 36.5q5 1 14 1q30 0 56 -20t34 -20q12 0 23.5 19.5t20.5 19.5q7 0 30.5 -9t23.5 -13q0 -8 -14 -36q-21 -34 -38.5 -49.5t-48.5 -15.5q-25 0 -53.5 22t-30.5 22z" />
    <glyph glyph-name="Ograve" unicode="&#xd2;" horiz-adv-x="587" 
d="M312 692q162 0 212.5 -96t18.5 -291q-31 -107 -58 -155q-28 -50 -76 -85t-103 -44q-128 -21 -194.5 49t-81.5 199q1 148 31 235l1 1v2q65 185 250 185zM223 288q0 -80 43 -80q36 0 60.5 73.5t24.5 140.5q0 27 -11 52t-36 25t-43 -25t-25.5 -63.5t-10 -67.5t-2.5 -55z
M390 772q2 -5 2.5 -8.5t-1.5 -7t-3 -5t-5.5 -5t-5.5 -4.5q-2 -1 -11.5 -8.5t-14.5 -9.5q-6 -1 -8.5 -1.5t-9 2t-9 4t-8 5t-6.5 4.5l-59 39q-21 12 -28 27q-4 10 16.5 32t34.5 28l4 1l4 1q8 -1 14.5 -6t15 -14t10.5 -11q4 -4 17 -15.5t28 -24.5t17 -15z" />
    <glyph glyph-name="Oacute" unicode="&#xd3;" horiz-adv-x="587" 
d="M312 692q162 0 212.5 -96t18.5 -291q-31 -107 -58 -155q-28 -50 -76 -85t-103 -44q-128 -21 -194.5 49t-81.5 199q1 148 31 235l1 1v2q65 185 250 185zM223 288q0 -80 43 -80q36 0 60.5 73.5t24.5 140.5q0 27 -11 52t-36 25t-43 -25t-25.5 -63.5t-10 -67.5t-2.5 -55z
M225 772l6 8q2 2 17 15t28 24.5t17 15.5q2 2 10.5 11t15 14t14.5 6q1 0 4 -1t4 -1q14 -6 34.5 -28t16.5 -32q-7 -15 -28 -27l-59 -39q-1 -1 -6.5 -4.5t-8 -5t-9 -4t-9 -2t-8.5 1.5q-5 2 -14.5 9.5t-11.5 8.5q-1 1 -5.5 4.5t-5.5 5t-3 5t-1.5 7t2.5 8.5z" />
    <glyph glyph-name="Ocircumflex" unicode="&#xd4;" horiz-adv-x="587" 
d="M312 692q162 0 212.5 -96t18.5 -291q-31 -107 -58 -155q-28 -50 -76 -85t-103 -44q-128 -21 -194.5 49t-81.5 199q1 148 31 235l1 1v2q65 185 250 185zM223 288q0 -80 43 -80q36 0 60.5 73.5t24.5 140.5q0 27 -11 52t-36 25t-43 -25t-25.5 -63.5t-10 -67.5t-2.5 -55z
M305 791l-37 -53q-8 -12 -68 -12q-11 0 -19.5 7t-8.5 14q0 9 8 17l75 70q21 27 43 27q36 0 84 -48l5 -5q1 0 3 -2q1 -1 13.5 -13t23.5 -23l13 -13q9 -9 9 -14q0 -10 -27 -18h-1q-23 -2 -54 -2h-18q-4 2 -6 4.5t-3.5 5.5t-3.5 6q-3 2 -6.5 9.5t-10 19.5t-14.5 23z" />
    <glyph glyph-name="Otilde" unicode="&#xd5;" horiz-adv-x="587" 
d="M312 692q162 0 212.5 -96t18.5 -291q-31 -107 -58 -155q-28 -50 -76 -85t-103 -44q-128 -21 -194.5 49t-81.5 199q1 148 31 235l1 1v2q65 185 250 185zM223 288q0 -80 43 -80q36 0 60.5 73.5t24.5 140.5q0 27 -11 52t-36 25t-43 -25t-25.5 -63.5t-10 -67.5t-2.5 -55z
M261 777q-13 0 -21 -23.5t-19 -23.5q-5 0 -14.5 4t-11.5 4l-24 7q-9 4 -9 11q0 27 27.5 63.5t54.5 36.5q5 1 14 1q30 0 56 -20t34 -20q12 0 23.5 19.5t20.5 19.5q7 0 30.5 -9t23.5 -13q0 -8 -14 -36q-21 -34 -38.5 -49.5t-48.5 -15.5q-25 0 -53.5 22t-30.5 22z" />
    <glyph glyph-name="Odieresis" unicode="&#xd6;" horiz-adv-x="587" 
d="M312 692q162 0 212.5 -96t18.5 -291q-31 -107 -58 -155q-28 -50 -76 -85t-103 -44q-128 -21 -194.5 49t-81.5 199q1 148 31 235l1 1v2q65 185 250 185zM223 288q0 -80 43 -80q36 0 60.5 73.5t24.5 140.5q0 27 -11 52t-36 25t-43 -25t-25.5 -63.5t-10 -67.5t-2.5 -55z
M326 783q0 31 23 50t58 19q26 0 42.5 -16t16.5 -38q0 -31 -19 -49.5t-54 -18.5q-30 0 -48.5 13.5t-18.5 39.5zM162 783v5q0 32 17.5 48t43.5 16t46.5 -15.5t20.5 -40.5q0 -27 -21.5 -46.5t-50.5 -19.5q-52 0 -56 53z" />
    <glyph glyph-name="Oslash" unicode="&#xd8;" horiz-adv-x="587" 
d="M312 692q162 0 212.5 -96t18.5 -291q-31 -107 -58 -155q-28 -50 -76 -85t-103 -44q-128 -21 -194.5 49t-81.5 199q1 148 31 235l1 1v2q65 185 250 185zM304 499q-62 0 -78 -146l125 71q-1 27 -12 51t-35 24zM266 208q45 0 72 116l-115 -57q6 -59 43 -59z" />
    <glyph glyph-name="Ugrave" unicode="&#xd9;" horiz-adv-x="682" 
d="M61 682q1 2 6 5.5t7 3.5q2 1 13.5 2t13.5 1q15 0 114 3h3q48 -3 58 -3h2q3 -1 4 -1q12 0 17 -1t10 -4t6 -9.5t1 -19.5q0 -1 -0.5 -8t-0.5 -8q-6 -68 -9.5 -141.5t-2.5 -151t13.5 -126.5t35.5 -47q13 -1 19.5 2t12.5 18t7.5 42.5t2 79t-1 124.5t-4.5 182q-1 25 -1 38v13
q2 4 13.5 7t27 3.5t32.5 1t30 0.5h20q5 0 32 1.5t53 4t42 6.5q21 -180 12 -343t-51 -236q-20 -35 -70.5 -69t-92.5 -44q-26 -7 -81 -7h-27q-29 2 -51 5.5t-53.5 13.5t-54 24t-48.5 40.5t-42.5 60.5t-30 85.5t-16 115t4 149.5t25.5 187zM430 774q2 -5 2.5 -8.5t-1.5 -7t-3 -5
t-5.5 -5t-5.5 -4.5q-2 -1 -11.5 -8.5t-14.5 -9.5q-6 -1 -8.5 -1.5t-9 2t-9 4t-8 5t-6.5 4.5l-59 39q-21 12 -28 27q-4 10 16.5 32t34.5 28l4 1l4 1q8 -1 14.5 -6t15 -14t10.5 -11q4 -4 17 -15.5t28 -24.5t17 -15z" />
    <glyph glyph-name="Uacute" unicode="&#xda;" horiz-adv-x="682" 
d="M61 682q1 2 6 5.5t7 3.5q2 1 13.5 2t13.5 1q15 0 114 3h3q48 -3 58 -3h2q3 -1 4 -1q12 0 17 -1t10 -4t6 -9.5t1 -19.5q0 -1 -0.5 -8t-0.5 -8q-6 -68 -9.5 -141.5t-2.5 -151t13.5 -126.5t35.5 -47q13 -1 19.5 2t12.5 18t7.5 42.5t2 79t-1 124.5t-4.5 182q-1 25 -1 38v13
q2 4 13.5 7t27 3.5t32.5 1t30 0.5h20q5 0 32 1.5t53 4t42 6.5q21 -180 12 -343t-51 -236q-20 -35 -70.5 -69t-92.5 -44q-26 -7 -81 -7h-27q-29 2 -51 5.5t-53.5 13.5t-54 24t-48.5 40.5t-42.5 60.5t-30 85.5t-16 115t4 149.5t25.5 187zM265 774l6 8q2 2 17 15t28 24.5
t17 15.5q2 2 10.5 11t15 14t14.5 6q1 0 4 -1t4 -1q14 -6 34.5 -28t16.5 -32q-7 -15 -28 -27l-59 -39q-1 -1 -6.5 -4.5t-8 -5t-9 -4t-9 -2t-8.5 1.5q-5 2 -14.5 9.5t-11.5 8.5q-1 1 -5.5 4.5t-5.5 5t-3 5t-1.5 7t2.5 8.5z" />
    <glyph glyph-name="Ucircumflex" unicode="&#xdb;" horiz-adv-x="682" 
d="M61 682q1 2 6 5.5t7 3.5q2 1 13.5 2t13.5 1q15 0 114 3h3q48 -3 58 -3h2q3 -1 4 -1q12 0 17 -1t10 -4t6 -9.5t1 -19.5q0 -1 -0.5 -8t-0.5 -8q-6 -68 -9.5 -141.5t-2.5 -151t13.5 -126.5t35.5 -47q13 -1 19.5 2t12.5 18t7.5 42.5t2 79t-1 124.5t-4.5 182q-1 25 -1 38v13
q2 4 13.5 7t27 3.5t32.5 1t30 0.5h20q5 0 32 1.5t53 4t42 6.5q21 -180 12 -343t-51 -236q-20 -35 -70.5 -69t-92.5 -44q-26 -7 -81 -7h-27q-29 2 -51 5.5t-53.5 13.5t-54 24t-48.5 40.5t-42.5 60.5t-30 85.5t-16 115t4 149.5t25.5 187zM345 793l-37 -53q-8 -12 -68 -12
q-11 0 -19.5 7t-8.5 14q0 9 8 17l75 70q21 27 43 27q36 0 84 -48l5 -5q1 0 3 -2q1 -1 13.5 -13t23.5 -23l13 -13q9 -9 9 -14q0 -10 -27 -18h-1q-23 -2 -54 -2h-18q-4 2 -6 4.5t-3.5 5.5t-3.5 6q-3 2 -6.5 9.5t-10 19.5t-14.5 23z" />
    <glyph glyph-name="Udieresis" unicode="&#xdc;" horiz-adv-x="682" 
d="M61 682q1 2 6 5.5t7 3.5q2 1 13.5 2t13.5 1q15 0 114 3h3q48 -3 58 -3h2q3 -1 4 -1q12 0 17 -1t10 -4t6 -9.5t1 -19.5q0 -1 -0.5 -8t-0.5 -8q-6 -68 -9.5 -141.5t-2.5 -151t13.5 -126.5t35.5 -47q13 -1 19.5 2t12.5 18t7.5 42.5t2 79t-1 124.5t-4.5 182q-1 25 -1 38v13
q2 4 13.5 7t27 3.5t32.5 1t30 0.5h20q5 0 32 1.5t53 4t42 6.5q21 -180 12 -343t-51 -236q-20 -35 -70.5 -69t-92.5 -44q-26 -7 -81 -7h-27q-29 2 -51 5.5t-53.5 13.5t-54 24t-48.5 40.5t-42.5 60.5t-30 85.5t-16 115t4 149.5t25.5 187zM366 785q0 31 23 50t58 19
q26 0 42.5 -16t16.5 -38q0 -31 -19 -49.5t-54 -18.5q-30 0 -48.5 13.5t-18.5 39.5zM202 785v5q0 32 17.5 48t43.5 16t46.5 -15.5t20.5 -40.5q0 -27 -21.5 -46.5t-50.5 -19.5q-52 0 -56 53z" />
    <glyph glyph-name="germandbls" unicode="&#xdf;" horiz-adv-x="671" 
d="M309 29v2l1 7v7l18 134q3 1 40 -2t65 9t28 49q0 27 -24.5 44t-52.5 22.5t-53 3.5q-14 7 -14 22q0 2 -0.5 13.5t-0.5 14.5v16l1 12q0 48 2 66q4 14 47.5 25t43.5 30q0 14 -11.5 29.5t-25.5 22.5h-20q-16 0 -29 -3t-21.5 -7t-15 -13t-10 -15t-6.5 -20t-4 -21t-2.5 -25
t-2.5 -25q0 -5 -0.5 -13t-0.5 -12q0 -3 -0.5 -9t-0.5 -9q-5 -137 -5 -240q0 -14 1.5 -43t1.5 -44v-21q-4 -9 -13.5 -11.5t-22 -2.5t-18.5 -2l-145 -8q-1 0 -4 -0.5t-4 -0.5q-14 0 -17 14q-3 50 -3 189q0 161 24 281q23 121 101 172t214 51q157 0 203 -81q20 -37 20 -53v-65
q0 -62 -77 -120v-1q0 -2 3.5 -4.5t7.5 -3.5l4 -2q63 -41 86.5 -76.5t23.5 -103.5q0 -62 -27 -107t-67.5 -64.5t-87 -26.5t-86.5 -1t-64 20z" />
    <glyph glyph-name="agrave" unicode="&#xe0;" horiz-adv-x="614" 
d="M30 17l126 651q23 26 143 26q17 0 43.5 -0.5t35.5 -0.5l35 -1q54 -10 85 -108q4 -11 18 -66.5t15 -58.5q2 -15 13.5 -81t12.5 -74l27 -267q0 -14 -26 -14h-13l-86 1q-44 4 -79 4q-16 10 -16 46q0 12 -0.5 25.5t-1.5 24.5t-2 21.5t-2 18.5t-2 14t-2 9v3q-9 0 -15 2
q-36 0 -66 -6l-4 -5q-1 -1 -2.5 -0.5t-2.5 0.5t-1.5 -4t-0.5 -12q0 -113 3 -138q-7 -7 -13 -8q-128 -5 -162 -4l-59 1zM386 776q2 -5 2.5 -8.5t-1.5 -7t-3 -5t-5.5 -5t-5.5 -4.5q-2 -1 -11.5 -8.5t-14.5 -9.5q-6 -1 -8.5 -1.5t-9 2t-9 4t-8 5t-6.5 4.5l-59 39q-21 12 -28 27
q-4 10 16.5 32t34.5 28l4 1l4 1q8 -1 14.5 -6t15 -14t10.5 -11q4 -4 17 -15.5t28 -24.5t17 -15zM286 342q7 -4 23 -4q3 0 8.5 0.5t7.5 0.5l20 -1l3 3l-1 131q-1 2 -2 10t-2.5 13t-6.5 9.5t-13 4.5h-2q-24 0 -27 -10q-9 -33 -9 -119q0 -2 0.5 -16t0.5 -22z" />
    <glyph glyph-name="aacute" unicode="&#xe1;" horiz-adv-x="614" 
d="M30 17l126 651q23 26 143 26q17 0 43.5 -0.5t35.5 -0.5l35 -1q54 -10 85 -108q4 -11 18 -66.5t15 -58.5q2 -15 13.5 -81t12.5 -74l27 -267q0 -14 -26 -14h-13l-86 1q-44 4 -79 4q-16 10 -16 46q0 12 -0.5 25.5t-1.5 24.5t-2 21.5t-2 18.5t-2 14t-2 9v3q-9 0 -15 2
q-36 0 -66 -6l-4 -5q-1 -1 -2.5 -0.5t-2.5 0.5t-1.5 -4t-0.5 -12q0 -113 3 -138q-7 -7 -13 -8q-128 -5 -162 -4l-59 1zM221 776l6 8q2 2 17 15t28 24.5t17 15.5q2 2 10.5 11t15 14t14.5 6q1 0 4 -1t4 -1q14 -6 34.5 -28t16.5 -32q-7 -15 -28 -27l-59 -39q-1 -1 -6.5 -4.5
t-8 -5t-9 -4t-9 -2t-8.5 1.5q-5 2 -14.5 9.5t-11.5 8.5q-1 1 -5.5 4.5t-5.5 5t-3 5t-1.5 7t2.5 8.5zM286 342q7 -4 23 -4q3 0 8.5 0.5t7.5 0.5l20 -1l3 3l-1 131q-1 2 -2 10t-2.5 13t-6.5 9.5t-13 4.5h-2q-24 0 -27 -10q-9 -33 -9 -119q0 -2 0.5 -16t0.5 -22z" />
    <glyph glyph-name="acircumflex" unicode="&#xe2;" horiz-adv-x="614" 
d="M30 17l126 651q23 26 143 26q17 0 43.5 -0.5t35.5 -0.5l35 -1q54 -10 85 -108q4 -11 18 -66.5t15 -58.5q2 -15 13.5 -81t12.5 -74l27 -267q0 -14 -26 -14h-13l-86 1q-44 4 -79 4q-16 10 -16 46q0 12 -0.5 25.5t-1.5 24.5t-2 21.5t-2 18.5t-2 14t-2 9v3q-9 0 -15 2
q-36 0 -66 -6l-4 -5q-1 -1 -2.5 -0.5t-2.5 0.5t-1.5 -4t-0.5 -12q0 -113 3 -138q-7 -7 -13 -8q-128 -5 -162 -4l-59 1zM301 795l-37 -53q-8 -12 -68 -12q-11 0 -19.5 7t-8.5 14q0 9 8 17l75 70q21 27 43 27q36 0 84 -48l5 -5q1 0 3 -2q1 -1 13.5 -13t23.5 -23l13 -13
q9 -9 9 -14q0 -10 -27 -18h-1q-23 -2 -54 -2h-18q-4 2 -6 4.5t-3.5 5.5t-3.5 6q-3 2 -6.5 9.5t-10 19.5t-14.5 23zM286 342q7 -4 23 -4q3 0 8.5 0.5t7.5 0.5l20 -1l3 3l-1 131q-1 2 -2 10t-2.5 13t-6.5 9.5t-13 4.5h-2q-24 0 -27 -10q-9 -33 -9 -119q0 -2 0.5 -16t0.5 -22z
" />
    <glyph glyph-name="atilde" unicode="&#xe3;" horiz-adv-x="614" 
d="M30 17l126 651q23 26 143 26q17 0 43.5 -0.5t35.5 -0.5l35 -1q54 -10 85 -108q4 -11 18 -66.5t15 -58.5q2 -15 13.5 -81t12.5 -74l27 -267q0 -14 -26 -14h-13l-86 1q-44 4 -79 4q-16 10 -16 46q0 12 -0.5 25.5t-1.5 24.5t-2 21.5t-2 18.5t-2 14t-2 9v3q-9 0 -15 2
q-36 0 -66 -6l-4 -5q-1 -1 -2.5 -0.5t-2.5 0.5t-1.5 -4t-0.5 -12q0 -113 3 -138q-7 -7 -13 -8q-128 -5 -162 -4l-59 1zM257 781q-13 0 -21 -23.5t-19 -23.5q-5 0 -14.5 4t-11.5 4l-24 7q-9 4 -9 11q0 27 27.5 63.5t54.5 36.5q5 1 14 1q30 0 56 -20t34 -20q12 0 23.5 19.5
t20.5 19.5q7 0 30.5 -9t23.5 -13q0 -8 -14 -36q-21 -34 -38.5 -49.5t-48.5 -15.5q-25 0 -53.5 22t-30.5 22zM286 342q7 -4 23 -4q3 0 8.5 0.5t7.5 0.5l20 -1l3 3l-1 131q-1 2 -2 10t-2.5 13t-6.5 9.5t-13 4.5h-2q-24 0 -27 -10q-9 -33 -9 -119q0 -2 0.5 -16t0.5 -22z" />
    <glyph glyph-name="adieresis" unicode="&#xe4;" horiz-adv-x="614" 
d="M30 17l126 651q23 26 143 26q17 0 43.5 -0.5t35.5 -0.5l35 -1q54 -10 85 -108q4 -11 18 -66.5t15 -58.5q2 -15 13.5 -81t12.5 -74l27 -267q0 -14 -26 -14h-13l-86 1q-44 4 -79 4q-16 10 -16 46q0 12 -0.5 25.5t-1.5 24.5t-2 21.5t-2 18.5t-2 14t-2 9v3q-9 0 -15 2
q-36 0 -66 -6l-4 -5q-1 -1 -2.5 -0.5t-2.5 0.5t-1.5 -4t-0.5 -12q0 -113 3 -138q-7 -7 -13 -8q-128 -5 -162 -4l-59 1zM322 787q0 31 23 50t58 19q26 0 42.5 -16t16.5 -38q0 -31 -19 -49.5t-54 -18.5q-30 0 -48.5 13.5t-18.5 39.5zM158 787v5q0 32 17.5 48t43.5 16
t46.5 -15.5t20.5 -40.5q0 -27 -21.5 -46.5t-50.5 -19.5q-52 0 -56 53zM286 342q7 -4 23 -4q3 0 8.5 0.5t7.5 0.5l20 -1l3 3l-1 131q-1 2 -2 10t-2.5 13t-6.5 9.5t-13 4.5h-2q-24 0 -27 -10q-9 -33 -9 -119q0 -2 0.5 -16t0.5 -22z" />
    <glyph glyph-name="aring" unicode="&#xe5;" horiz-adv-x="614" 
d="M30 17l126 651q23 26 143 26q17 0 43.5 -0.5t35.5 -0.5l35 -1q54 -10 85 -108q4 -11 18 -66.5t15 -58.5q2 -15 13.5 -81t12.5 -74l27 -267q0 -14 -26 -14h-13l-86 1q-44 4 -79 4q-16 10 -16 46q0 12 -0.5 25.5t-1.5 24.5t-2 21.5t-2 18.5t-2 14t-2 9v3q-9 0 -15 2
q-36 0 -66 -6l-4 -5q-1 -1 -2.5 -0.5t-2.5 0.5t-1.5 -4t-0.5 -12q0 -113 3 -138q-7 -7 -13 -8q-128 -5 -162 -4l-59 1zM204 831q0 41 23.5 65.5t58.5 24.5q46 0 77 -23t31 -62q0 -37 -23.5 -63t-63.5 -26q-42 0 -72 24t-31 60zM286 342q7 -4 23 -4q3 0 8.5 0.5t7.5 0.5
l20 -1l3 3l-1 131q-1 2 -2 10t-2.5 13t-6.5 9.5t-13 4.5h-2q-24 0 -27 -10q-9 -33 -9 -119q0 -2 0.5 -16t0.5 -22zM264 827q6 -29 31 -29q16 0 29 12.5t13 29.5q0 16 -12.5 24t-26.5 8q-15 0 -25 -9.5t-10 -24.5q0 -7 1 -11z" />
    <glyph glyph-name="ae" unicode="&#xe6;" horiz-adv-x="880" 
d="M421 12q-13 61 -13 156v70h-48v-1q-47 -5 -52 -5l-5 -5q-8 -11 -18 -71q-19 -96 -21 -145q-10 -7 -15 -8q-128 -5 -161 -4l-57 1l-1 1l248 688q12 11 67 13.5t268 2.5h95q67 0 85 -2l20 -2l10 -10q0 -59 2 -83l9 -65l-1 -4v-3q0 -10 -6.5 -15.5t-15.5 -6.5t-19 -1h-17
q-63 0 -137 8l-3 -3l7 -52l5 -4q37 10 89 10h8.5h10h9t8.5 -1t7 -2.5t6 -4t3 -6.5v-85q0 -25 -0.5 -36.5t-1.5 -25.5t-4.5 -19t-8.5 -5l-121 9v-2q0 -3 -0.5 -6t-0.5 -6q0 -1 1 -3v-2q0 -30 4 -74l142 12h2q31 -3 32 -14l5 -27q0 -6 2 -43t2 -44q1 -8 5 -30.5t4 -34.5v-11
q-12 -8 -50 -8q-63 0 -116 7l-195 -9q-28 -4 -33 -4q-31 0 -35 15zM412 399l2 116q-6 2 -9 2h-2q-24 0 -28 -10q-15 -34 -21 -71l-6 -40z" />
    <glyph glyph-name="ccedilla" unicode="&#xe7;" horiz-adv-x="515" 
d="M139 -159q4 2 33 7.5t49 16t20 27.5q0 15 -15 17.5t-31.5 3.5t-18.5 13q0 3 31 96q-128 32 -158 139q-3 7 -8 33q-1 4 -3 16t-4 21t-2 10q-6 115 8 197.5t53.5 144.5t112.5 91.5t181 26.5l8 1h11q2 0 9.5 0.5t12 0t12 -1t12.5 -2t10 -4t7 -7.5t2 -11l-4 -171
q-20 2 -43.5 1t-52.5 -8t-52.5 -21.5t-43.5 -38.5t-25.5 -59t2.5 -83q14 -72 160 -72q8 0 24.5 1.5t25.5 1.5q18 0 23 -11v-62q0 -10 -1.5 -65.5t-1.5 -65.5q-6 -8 -32 -10.5t-35 -7.5h-56q-35 0 -53 1q-14 -27 -17 -39q4 -2 12.5 -3.5t10.5 -1.5q29 -5 46.5 -25.5
t17.5 -52.5q0 -33 -34.5 -63t-72 -46t-74.5 -25q-12 1 -56 86l-1 3q0 1 1 1z" />
    <glyph glyph-name="egrave" unicode="&#xe8;" horiz-adv-x="522" 
d="M44 16q-14 58 -14 152q0 71 4.5 213.5t4.5 214.5q0 53 -1 80q8 24 68 24q38 0 166.5 -4t160.5 -5l21 -2l10 -10q0 -57 2 -81l10 -63l-1 -4v-3q0 -10 -6.5 -15.5t-16 -6t-20 -1t-18.5 -0.5q-66 0 -143 8l-3 -3l7 -51l5 -3q41 9 93 9h9.5h10h9t9 -1t7 -2.5t6 -4t3.5 -5.5
v-66q0 -83 -5 -94q-3 -8 -10 -8l-127 9l-1 -5v-8v-3l1 -2q0 -18 5 -73l148 12h2q32 -3 34 -14l5 -26q0 -6 2 -42t2 -43q1 -8 5 -30t4 -34v-10q-12 -8 -52 -8q-65 0 -121 7l-204 -9q-30 -4 -35 -4q-32 0 -36 15zM322 778q2 -5 2.5 -8.5t-1.5 -7t-3 -5t-5.5 -5t-5.5 -4.5
q-2 -1 -11.5 -8.5t-14.5 -9.5q-6 -1 -8.5 -1.5t-9 2t-9 4t-8 5t-6.5 4.5l-59 39q-21 12 -28 27q-4 10 16.5 32t34.5 28l4 1l4 1q8 -1 14.5 -6t15 -14t10.5 -11q4 -4 17 -15.5t28 -24.5t17 -15z" />
    <glyph glyph-name="eacute" unicode="&#xe9;" horiz-adv-x="522" 
d="M44 16q-14 58 -14 152q0 71 4.5 213.5t4.5 214.5q0 53 -1 80q8 24 68 24q38 0 166.5 -4t160.5 -5l21 -2l10 -10q0 -57 2 -81l10 -63l-1 -4v-3q0 -10 -6.5 -15.5t-16 -6t-20 -1t-18.5 -0.5q-66 0 -143 8l-3 -3l7 -51l5 -3q41 9 93 9h9.5h10h9t9 -1t7 -2.5t6 -4t3.5 -5.5
v-66q0 -83 -5 -94q-3 -8 -10 -8l-127 9l-1 -5v-8v-3l1 -2q0 -18 5 -73l148 12h2q32 -3 34 -14l5 -26q0 -6 2 -42t2 -43q1 -8 5 -30t4 -34v-10q-12 -8 -52 -8q-65 0 -121 7l-204 -9q-30 -4 -35 -4q-32 0 -36 15zM157 778q0 1 1 2t2.5 3t2.5 3q2 2 17 15t28 24.5t17 15.5
q2 2 10.5 11t15 14t14.5 6q1 0 4 -1t4 -1q14 -6 34.5 -28t16.5 -32q-7 -15 -28 -27l-59 -39q-1 -1 -6.5 -4.5t-8 -5t-9 -4t-9 -2t-8.5 1.5q-5 2 -14.5 9.5t-11.5 8.5q-1 1 -5.5 4.5t-5.5 5t-3 5t-1.5 7t2.5 8.5z" />
    <glyph glyph-name="ecircumflex" unicode="&#xea;" horiz-adv-x="522" 
d="M44 16q-14 58 -14 152q0 71 4.5 213.5t4.5 214.5q0 53 -1 80q8 24 68 24q38 0 166.5 -4t160.5 -5l21 -2l10 -10q0 -57 2 -81l10 -63l-1 -4v-3q0 -10 -6.5 -15.5t-16 -6t-20 -1t-18.5 -0.5q-66 0 -143 8l-3 -3l7 -51l5 -3q41 9 93 9h9.5h10h9t9 -1t7 -2.5t6 -4t3.5 -5.5
v-66q0 -83 -5 -94q-3 -8 -10 -8l-127 9l-1 -5v-8v-3l1 -2q0 -18 5 -73l148 12h2q32 -3 34 -14l5 -26q0 -6 2 -42t2 -43q1 -8 5 -30t4 -34v-10q-12 -8 -52 -8q-65 0 -121 7l-204 -9q-30 -4 -35 -4q-32 0 -36 15zM237 797l-37 -53q-8 -12 -68 -12q-11 0 -19.5 7t-8.5 14
q0 9 8 17l75 70q21 27 43 27q36 0 84 -48l5 -5q1 0 3 -2q1 -1 13.5 -13t23.5 -23l13 -13q9 -9 9 -14q0 -10 -27 -18h-1q-23 -2 -54 -2h-18q-4 2 -6 4.5t-3.5 5.5t-3.5 6q-3 2 -6.5 9.5t-10 19.5t-14.5 23z" />
    <glyph glyph-name="edieresis" unicode="&#xeb;" horiz-adv-x="522" 
d="M44 16q-14 58 -14 152q0 71 4.5 213.5t4.5 214.5q0 53 -1 80q8 24 68 24q38 0 166.5 -4t160.5 -5l21 -2l10 -10q0 -57 2 -81l10 -63l-1 -4v-3q0 -10 -6.5 -15.5t-16 -6t-20 -1t-18.5 -0.5q-66 0 -143 8l-3 -3l7 -51l5 -3q41 9 93 9h9.5h10h9t9 -1t7 -2.5t6 -4t3.5 -5.5
v-66q0 -83 -5 -94q-3 -8 -10 -8l-127 9l-1 -5v-8v-3l1 -2q0 -18 5 -73l148 12h2q32 -3 34 -14l5 -26q0 -6 2 -42t2 -43q1 -8 5 -30t4 -34v-10q-12 -8 -52 -8q-65 0 -121 7l-204 -9q-30 -4 -35 -4q-32 0 -36 15zM258 789q0 31 23 50t58 19q26 0 42.5 -16t16.5 -38
q0 -31 -19 -49.5t-54 -18.5q-30 0 -48.5 13.5t-18.5 39.5zM94 789v5q0 32 17.5 48t43.5 16t46.5 -15.5t20.5 -40.5q0 -27 -21.5 -46.5t-50.5 -19.5q-52 0 -56 53z" />
    <glyph glyph-name="igrave" unicode="&#xec;" horiz-adv-x="303" 
d="M30 37l7 634q1 10 7.5 20.5t14.5 10.5q7 0 29 -2h127q57 0 57 -31v-5l-1 -4q-1 -49 -0.5 -80.5t1.5 -187t1 -315.5v-35q-4 -13 -26 -21t-39 -9q-75 -7 -121 -7q-3 0 -19 0.5t-18 0.5q-20 2 -20 31zM234 782q2 -5 2.5 -8.5t-1.5 -7t-3 -5t-5.5 -5t-5.5 -4.5
q-2 -1 -11.5 -8.5t-14.5 -9.5q-6 -1 -8.5 -1.5t-9 2t-9 4t-8 5t-6.5 4.5l-59 39q-21 12 -28 27q-4 10 16.5 32t34.5 28l4 1l4 1q8 -1 14.5 -6t15 -14t10.5 -11q4 -4 17 -15.5t28 -24.5t17 -15z" />
    <glyph glyph-name="iacute" unicode="&#xed;" horiz-adv-x="303" 
d="M30 37l7 634q1 10 7.5 20.5t14.5 10.5q7 0 29 -2h127q57 0 57 -31v-5l-1 -4q-1 -49 -0.5 -80.5t1.5 -187t1 -315.5v-35q-4 -13 -26 -21t-39 -9q-75 -7 -121 -7q-3 0 -19 0.5t-18 0.5q-20 2 -20 31zM69 782l6 8q2 2 17 15t28 24.5t17 15.5q2 2 10.5 11t15 14t14.5 6
q1 0 4 -1t4 -1q14 -6 34.5 -28t16.5 -32q-7 -15 -28 -27l-59 -39q-1 -1 -6.5 -4.5t-8 -5t-9 -4t-9 -2t-8.5 1.5q-5 2 -14.5 9.5t-11.5 8.5q-1 1 -5.5 4.5t-5.5 5t-3 5t-1.5 7t2.5 8.5z" />
    <glyph glyph-name="icircumflex" unicode="&#xee;" horiz-adv-x="303" 
d="M30 37l7 634q1 10 7.5 20.5t14.5 10.5q7 0 29 -2h127q57 0 57 -31v-5l-1 -4q-1 -49 -0.5 -80.5t1.5 -187t1 -315.5v-35q-4 -13 -26 -21t-39 -9q-75 -7 -121 -7q-3 0 -19 0.5t-18 0.5q-20 2 -20 31zM149 801l-37 -53q-8 -12 -68 -12q-11 0 -19.5 7t-8.5 14q0 9 8 17l75 70
q21 27 43 27q36 0 84 -48l5 -5q1 0 3 -2q1 -1 13.5 -13t23.5 -23l13 -13q9 -9 9 -14q0 -10 -27 -18h-1q-23 -2 -54 -2h-18q-4 2 -6 4.5t-3.5 5.5t-3.5 6q-3 2 -6.5 9.5t-10 19.5t-14.5 23z" />
    <glyph glyph-name="idieresis" unicode="&#xef;" horiz-adv-x="303" 
d="M30 37l7 634q1 10 7.5 20.5t14.5 10.5q7 0 29 -2h127q57 0 57 -31v-5l-1 -4q-1 -49 -0.5 -80.5t1.5 -187t1 -315.5v-35q-4 -13 -26 -21t-39 -9q-75 -7 -121 -7q-3 0 -19 0.5t-18 0.5q-20 2 -20 31zM170 793q0 31 23 50t58 19q26 0 42.5 -16t16.5 -38q0 -31 -19 -49.5
t-54 -18.5q-30 0 -48.5 13.5t-18.5 39.5zM6 793v5q0 32 17.5 48t43.5 16t46.5 -15.5t20.5 -40.5q0 -27 -21.5 -46.5t-50.5 -19.5q-52 0 -56 53z" />
    <glyph glyph-name="ntilde" unicode="&#xf1;" 
d="M31 9q0 6 -0.5 41.5t-0.5 42.5q0 13 0.5 48t0.5 36q12 446 14 494q4 12 34 17q3 0 19 0.5t18 0.5q5 0 21 -1h16q47 0 77 -3q39 0 45 -6q14 -11 26 -36l71 -168q3 -3 3 -6l2 2q0 21 -1 65.5t-1 66.5q0 46 2 63q3 16 37 19q56 6 143 6h57q7 -2 13 -16.5t6 -22.5v-4
q0 -3 -3 -38.5t-5.5 -67.5t-2.5 -39v-7v-18t-0.5 -23.5t-0.5 -24.5v-19q0 -55 2 -164.5t2 -164.5q0 -38 -11 -48t-48 -17l-12 -2q-2 0 -13 -3t-13 -3h-19q-6 0 -19.5 1.5t-20.5 1.5t-21.5 -2.5t-22.5 -2.5h-11q-2 1 -11 16l-116 279l-9 8q-3 -13 -6 -49v-2l-5 -227
q-1 -37 -69 -37h-147q-9 0 -20 14zM289 777q-13 0 -21 -23.5t-19 -23.5q-5 0 -14.5 4t-11.5 4l-24 7q-9 4 -9 11q0 27 27.5 63.5t54.5 36.5q5 1 14 1q30 0 56 -20t34 -20q12 0 23.5 19.5t20.5 19.5q7 0 30.5 -9t23.5 -13q0 -8 -14 -36q-21 -34 -38.5 -49.5t-48.5 -15.5
q-25 0 -53.5 22t-30.5 22z" />
    <glyph glyph-name="ograve" unicode="&#xf2;" 
d="M32 299q-2 26 -2 41q0 65 20 127.5t58 115t101 85t141 32.5q75 0 131.5 -27.5t88.5 -74.5t47.5 -103t15.5 -120q0 -56 -14 -116.5t-41.5 -118.5t-78 -95.5t-115.5 -37.5q-161 0 -249.5 74t-102.5 218zM265 303q0 -2 0.5 -6t0.5 -6q2 -20 4 -33t8 -30.5t19.5 -26.5
t32.5 -9q94 0 94 149q0 41 -5.5 69.5t-25.5 50t-54 21.5q-22 0 -37.5 -16t-22 -40.5t-9 -42t-3.5 -33.5q0 -4 -1.5 -12.5t-1.5 -13.5q0 -14 1 -21zM422 778q2 -5 2.5 -8.5t-1.5 -7t-3 -5t-5.5 -5t-5.5 -4.5q-2 -1 -11.5 -8.5t-14.5 -9.5q-6 -1 -8.5 -1.5t-9 2t-9 4t-8 5
t-6.5 4.5l-59 39q-21 12 -28 27q-4 10 16.5 32t34.5 28l4 1l4 1q8 -1 14.5 -6t15 -14t10.5 -11q4 -4 17 -15.5t28 -24.5t17 -15z" />
    <glyph glyph-name="oacute" unicode="&#xf3;" 
d="M32 299q-2 26 -2 41q0 65 20 127.5t58 115t101 85t141 32.5q75 0 131.5 -27.5t88.5 -74.5t47.5 -103t15.5 -120q0 -56 -14 -116.5t-41.5 -118.5t-78 -95.5t-115.5 -37.5q-161 0 -249.5 74t-102.5 218zM265 303q0 -2 0.5 -6t0.5 -6q2 -20 4 -33t8 -30.5t19.5 -26.5
t32.5 -9q94 0 94 149q0 41 -5.5 69.5t-25.5 50t-54 21.5q-22 0 -37.5 -16t-22 -40.5t-9 -42t-3.5 -33.5q0 -4 -1.5 -12.5t-1.5 -13.5q0 -14 1 -21zM257 778l6 8q2 2 17 15t28 24.5t17 15.5q2 2 10.5 11t15 14t14.5 6q1 0 4 -1t4 -1q14 -6 34.5 -28t16.5 -32q-7 -15 -28 -27
l-59 -39q-1 -1 -6.5 -4.5t-8 -5t-9 -4t-9 -2t-8.5 1.5q-5 2 -14.5 9.5t-11.5 8.5q-1 1 -5.5 4.5t-5.5 5t-3 5t-1.5 7t2.5 8.5z" />
    <glyph glyph-name="ocircumflex" unicode="&#xf4;" 
d="M32 299q-2 26 -2 41q0 65 20 127.5t58 115t101 85t141 32.5q75 0 131.5 -27.5t88.5 -74.5t47.5 -103t15.5 -120q0 -56 -14 -116.5t-41.5 -118.5t-78 -95.5t-115.5 -37.5q-161 0 -249.5 74t-102.5 218zM265 303q0 -2 0.5 -6t0.5 -6q2 -20 4 -33t8 -30.5t19.5 -26.5
t32.5 -9q94 0 94 149q0 41 -5.5 69.5t-25.5 50t-54 21.5q-22 0 -37.5 -16t-22 -40.5t-9 -42t-3.5 -33.5q0 -4 -1.5 -12.5t-1.5 -13.5q0 -14 1 -21zM337 797l-37 -53q-8 -12 -68 -12q-11 0 -19.5 7t-8.5 14q0 9 8 17l75 70q21 27 43 27q36 0 84 -48l5 -5q1 0 3 -2
q1 -1 13.5 -13t23.5 -23l13 -13q9 -9 9 -14q0 -10 -27 -18h-1q-23 -2 -54 -2h-18q-4 2 -6 4.5t-3.5 5.5t-3.5 6q-3 2 -6.5 9.5t-10 19.5t-14.5 23z" />
    <glyph glyph-name="otilde" unicode="&#xf5;" 
d="M32 299q-2 26 -2 41q0 65 20 127.5t58 115t101 85t141 32.5q75 0 131.5 -27.5t88.5 -74.5t47.5 -103t15.5 -120q0 -56 -14 -116.5t-41.5 -118.5t-78 -95.5t-115.5 -37.5q-161 0 -249.5 74t-102.5 218zM265 303q0 -2 0.5 -6t0.5 -6q2 -20 4 -33t8 -30.5t19.5 -26.5
t32.5 -9q94 0 94 149q0 41 -5.5 69.5t-25.5 50t-54 21.5q-22 0 -37.5 -16t-22 -40.5t-9 -42t-3.5 -33.5q0 -4 -1.5 -12.5t-1.5 -13.5q0 -14 1 -21zM293 783q-13 0 -21 -23.5t-19 -23.5q-5 0 -14.5 4t-11.5 4l-24 7q-9 4 -9 11q0 27 27.5 63.5t54.5 36.5q5 1 14 1
q30 0 56 -20t34 -20q12 0 23.5 19.5t20.5 19.5q7 0 30.5 -9t23.5 -13q0 -8 -14 -36q-21 -34 -38.5 -49.5t-48.5 -15.5q-25 0 -53.5 22t-30.5 22z" />
    <glyph glyph-name="odieresis" unicode="&#xf6;" 
d="M32 299q-2 26 -2 41q0 65 20 127.5t58 115t101 85t141 32.5q75 0 131.5 -27.5t88.5 -74.5t47.5 -103t15.5 -120q0 -56 -14 -116.5t-41.5 -118.5t-78 -95.5t-115.5 -37.5q-161 0 -249.5 74t-102.5 218zM265 303q0 -2 0.5 -6t0.5 -6q2 -20 4 -33t8 -30.5t19.5 -26.5
t32.5 -9q94 0 94 149q0 41 -5.5 69.5t-25.5 50t-54 21.5q-22 0 -37.5 -16t-22 -40.5t-9 -42t-3.5 -33.5q0 -4 -1.5 -12.5t-1.5 -13.5q0 -14 1 -21zM358 789q0 31 23 50t58 19q26 0 42.5 -16t16.5 -38q0 -31 -19 -49.5t-54 -18.5q-30 0 -48.5 13.5t-18.5 39.5zM194 789v5
q0 32 17.5 48t43.5 16t46.5 -15.5t20.5 -40.5q0 -27 -21.5 -46.5t-50.5 -19.5q-52 0 -56 53z" />
    <glyph glyph-name="oslash" unicode="&#xf8;" 
d="M32 299q-2 26 -2 41q0 65 20 127.5t58 115t101 85t141 32.5q75 0 131.5 -27.5t88.5 -74.5t47.5 -103t15.5 -120q0 -56 -14 -116.5t-41.5 -118.5t-78 -95.5t-115.5 -37.5q-161 0 -249.5 74t-102.5 218zM424 341q0 26 -3 50l-146 -156q14 -43 55 -43q94 0 94 149zM264 324
v-12l137 139q-21 31 -62 31q-22 0 -37.5 -16t-22 -40.5t-9 -42t-3.5 -33.5q0 -4 -1.5 -12.5t-1.5 -13.5z" />
    <glyph glyph-name="ugrave" unicode="&#xf9;" horiz-adv-x="652" 
d="M33 588q0 20 4 40q0 9 8 49q1 8 6.5 12t17 8t13.5 5q2 0 18.5 0.5t19.5 0.5q25 0 71 -3.5t67 -3.5q17 -3 20 -16v-34l-14 -117q-3 -18 -3 -100q0 -1 -0.5 -11t-0.5 -22.5v-18.5v-15v-18l1 -8q0 -26 8 -63q0 -1 0.5 -3.5t0.5 -3.5q3 -16 5.5 -26t12 -19.5t24.5 -9.5
q21 0 35.5 24.5t17.5 48.5q15 89 15 224q-3 46 -6 83t-4.5 54t-1.5 25q0 24 29 24q14 0 94 1.5t108 1.5q11 -3 11 -18l10 -201q4 -90 -2 -161.5t-19.5 -120t-36.5 -83.5t-46 -54.5t-56 -30.5t-59.5 -14t-62.5 -3q-82 0 -139.5 24.5t-92 72t-52.5 117.5t-21.5 161t0.5 202z
M406 774q2 -5 2.5 -8.5t-1.5 -7t-3 -5t-5.5 -5t-5.5 -4.5q-2 -1 -11.5 -8.5t-14.5 -9.5q-6 -1 -8.5 -1.5t-9 2t-9 4t-8 5t-6.5 4.5l-59 39q-21 12 -28 27q-4 10 16.5 32t34.5 28l4 1l4 1q8 -1 14.5 -6t15 -14t10.5 -11q4 -4 17 -15.5t28 -24.5t17 -15z" />
    <glyph glyph-name="uacute" unicode="&#xfa;" horiz-adv-x="652" 
d="M33 588q0 20 4 40q0 9 8 49q1 8 6.5 12t17 8t13.5 5q2 0 18.5 0.5t19.5 0.5q25 0 71 -3.5t67 -3.5q17 -3 20 -16v-34l-14 -117q-3 -18 -3 -100q0 -1 -0.5 -11t-0.5 -22.5v-18.5v-15v-18l1 -8q0 -26 8 -63q0 -1 0.5 -3.5t0.5 -3.5q3 -16 5.5 -26t12 -19.5t24.5 -9.5
q21 0 35.5 24.5t17.5 48.5q15 89 15 224q-3 46 -6 83t-4.5 54t-1.5 25q0 24 29 24q14 0 94 1.5t108 1.5q11 -3 11 -18l10 -201q4 -90 -2 -161.5t-19.5 -120t-36.5 -83.5t-46 -54.5t-56 -30.5t-59.5 -14t-62.5 -3q-82 0 -139.5 24.5t-92 72t-52.5 117.5t-21.5 161t0.5 202z
M241 774l6 8q2 2 17 15t28 24.5t17 15.5q2 2 10.5 11t15 14t14.5 6q1 0 4 -1t4 -1q14 -6 34.5 -28t16.5 -32q-7 -15 -28 -27l-59 -39q-1 -1 -6.5 -4.5t-8 -5t-9 -4t-9 -2t-8.5 1.5q-5 2 -14.5 9.5t-11.5 8.5q-1 1 -5.5 4.5t-5.5 5t-3 5t-1.5 7t2.5 8.5z" />
    <glyph glyph-name="ucircumflex" unicode="&#xfb;" horiz-adv-x="652" 
d="M33 588q0 20 4 40q0 9 8 49q1 8 6.5 12t17 8t13.5 5q2 0 18.5 0.5t19.5 0.5q25 0 71 -3.5t67 -3.5q17 -3 20 -16v-34l-14 -117q-3 -18 -3 -100q0 -1 -0.5 -11t-0.5 -22.5v-18.5v-15v-18l1 -8q0 -26 8 -63q0 -1 0.5 -3.5t0.5 -3.5q3 -16 5.5 -26t12 -19.5t24.5 -9.5
q21 0 35.5 24.5t17.5 48.5q15 89 15 224q-3 46 -6 83t-4.5 54t-1.5 25q0 24 29 24q14 0 94 1.5t108 1.5q11 -3 11 -18l10 -201q4 -90 -2 -161.5t-19.5 -120t-36.5 -83.5t-46 -54.5t-56 -30.5t-59.5 -14t-62.5 -3q-82 0 -139.5 24.5t-92 72t-52.5 117.5t-21.5 161t0.5 202z
M321 793l-37 -53q-8 -12 -68 -12q-11 0 -19.5 7t-8.5 14q0 9 8 17l75 70q21 27 43 27q36 0 84 -48l5 -5q1 0 3 -2q1 -1 13.5 -13t23.5 -23l13 -13q9 -9 9 -14q0 -10 -27 -18h-1q-23 -2 -54 -2h-18q-4 2 -6 4.5t-3.5 5.5t-3.5 6q-3 2 -6.5 9.5t-10 19.5t-14.5 23z" />
    <glyph glyph-name="udieresis" unicode="&#xfc;" horiz-adv-x="652" 
d="M33 588q0 20 4 40q0 9 8 49q1 8 6.5 12t17 8t13.5 5q2 0 18.5 0.5t19.5 0.5q25 0 71 -3.5t67 -3.5q17 -3 20 -16v-34l-14 -117q-3 -18 -3 -100q0 -1 -0.5 -11t-0.5 -22.5v-18.5v-15v-18l1 -8q0 -26 8 -63q0 -1 0.5 -3.5t0.5 -3.5q3 -16 5.5 -26t12 -19.5t24.5 -9.5
q21 0 35.5 24.5t17.5 48.5q15 89 15 224q-3 46 -6 83t-4.5 54t-1.5 25q0 24 29 24q14 0 94 1.5t108 1.5q11 -3 11 -18l10 -201q4 -90 -2 -161.5t-19.5 -120t-36.5 -83.5t-46 -54.5t-56 -30.5t-59.5 -14t-62.5 -3q-82 0 -139.5 24.5t-92 72t-52.5 117.5t-21.5 161t0.5 202z
M342 785q0 31 23 50t58 19q26 0 42.5 -16t16.5 -38q0 -31 -19 -49.5t-54 -18.5q-30 0 -48.5 13.5t-18.5 39.5zM178 785v5q0 32 17.5 48t43.5 16t46.5 -15.5t20.5 -40.5q0 -27 -21.5 -46.5t-50.5 -19.5q-52 0 -56 53z" />
    <glyph glyph-name="Euro" unicode="&#x20ac;" horiz-adv-x="545" 
d="M30 310v48h31q0 12 2 34h-33v52h40q23 128 101 192.5t229 64.5h17l8 1h11h21q44 0 44 -25l-4 -171q-8 1 -27 1q-109 0 -162 -63h70v-52h-96q-6 -22 -6 -34h72v-48h-69l3 -13q14 -72 160 -72q8 0 24.5 1.5t25.5 1.5q18 0 23 -11v-62q0 -10 -1.5 -65.5t-1.5 -65.5
q-6 -8 -32 -10.5t-35 -7.5h-56q-37 0 -67 2.5t-65.5 9t-63.5 20t-53.5 33t-43 51t-25.5 72.5q-11 54 -11 114v2h-30z" />
    </font>
</defs>
</svg>
