<svg width="131" height="116" viewBox="0 0 131 116" fill="none" xmlns="http://www.w3.org/2000/svg">
<path d="M4.84376 107.884C1.08593 107.884 1.08594 116 4.84376 116H74.6749C76.8668 116 78.1193 108.821 74.6749 107.884H70.2909C69.6646 93.8378 64.028 85.0978 50.8759 78.8549V101.017C49.1983 101.897 48.4163 101.726 47.1182 101.017V74.1727C41.0931 72.9964 37.6587 73.077 31.461 74.1727V101.017C30.1158 101.987 29.3617 101.881 28.0164 101.017V78.8549C13.9031 85.9255 8.91463 95.3985 8.28834 107.884H4.84376Z" fill="white"/>
<path d="M39.0368 109.483C38.9303 109.572 38.7307 109.692 38.4378 109.842C38.1538 109.993 37.8033 110.126 37.3862 110.242C36.9691 110.357 36.5076 110.41 36.0018 110.402C35.2297 110.384 34.5375 110.246 33.9252 109.989C33.3217 109.723 32.807 109.363 32.3811 108.911C31.964 108.458 31.6445 107.939 31.4226 107.353C31.2008 106.768 31.0898 106.142 31.0898 105.476C31.0898 104.731 31.2008 104.048 31.4226 103.426C31.6534 102.805 31.9773 102.268 32.3944 101.816C32.8203 101.363 33.3262 101.012 33.9119 100.764C34.4976 100.516 35.1454 100.391 35.8554 100.391C36.5121 100.391 37.0933 100.48 37.5992 100.658C38.105 100.835 38.5177 101.026 38.8372 101.23L38.0784 103.054C37.8565 102.885 37.5592 102.712 37.1865 102.534C36.8227 102.348 36.4011 102.255 35.9219 102.255C35.5492 102.255 35.1898 102.335 34.8437 102.495C34.5065 102.645 34.2047 102.863 33.9385 103.147C33.6812 103.431 33.477 103.764 33.3262 104.145C33.1753 104.518 33.0999 104.926 33.0999 105.37C33.0999 105.84 33.1664 106.271 33.2996 106.661C33.4415 107.051 33.6412 107.389 33.8986 107.673C34.1559 107.948 34.4621 108.161 34.8171 108.312C35.1809 108.463 35.5891 108.538 36.0417 108.538C36.5653 108.538 37.0135 108.454 37.3862 108.285C37.7589 108.116 38.0429 107.939 38.2381 107.753L39.0368 109.483Z" fill="#01273C"/>
<path d="M46.1688 114.498L38.7409 107.789L39.3133 108.108L39.3533 114.098H37.3965V103.915H37.4764L44.7444 110.597L44.3185 110.411L44.2785 104.301H46.222V114.498H46.1688Z" fill="#01273C"/>
<path d="M114.728 53.5881V13.546L117.661 12.0743V52.8522L121.327 51.7014V10.6026L123.527 9.13089V51.3805L126.459 52.1164V61.6825L120.594 64.6259V70.5128L120.486 70.56C117.351 71.9359 115.469 72.7617 116.194 76.3996C117.073 77.8071 117.735 78.2502 119.127 78.6072C121.372 78.7303 122.45 77.8439 124.26 75.6637V78.6072C121.327 81.5506 118.281 83.0463 114.728 77.8713C113.382 73.828 113.594 71.7679 118.394 69.0411V60.9467L116.928 65.3618H112.528L111.795 55.0598L114.728 53.5881Z" fill="white"/>
<path d="M11.7316 39.4215L0 45.3083V67.384L15.3977 69.5915L27.8624 63.7047V56.3461L130.126 8.09441V4.41513L124.26 7.62939e-06L17.5973 51.1952L27.8624 43.1007L11.7316 39.4215Z" fill="white"/>
<path d="M33.7282 32.0629L46.9262 24.7044V85.0445H33.7282V32.0629Z" fill="white"/>
</svg>
